<svg width="161" height="156" viewBox="0 0 161 156" fill="none" xmlns="http://www.w3.org/2000/svg">
<path d="M26.8458 136.39C26.1618 136.39 25.5438 136.51 24.9918 136.75C24.4398 136.978 23.9718 137.32 23.5878 137.776C23.2038 138.22 22.9098 138.766 22.7058 139.414C22.5018 140.05 22.3998 140.77 22.3998 141.574C22.3998 142.63 22.5618 143.548 22.8858 144.328C23.2218 145.108 23.7138 145.708 24.3618 146.128C25.0218 146.548 25.8438 146.758 26.8278 146.758C27.3918 146.758 27.9258 146.71 28.4298 146.614C28.9338 146.518 29.4258 146.398 29.9058 146.254V147.658C29.4258 147.838 28.9278 147.97 28.4118 148.054C27.9078 148.138 27.3018 148.18 26.5938 148.18C25.2858 148.18 24.1938 147.91 23.3178 147.37C22.4418 146.83 21.7818 146.062 21.3378 145.066C20.9058 144.07 20.6898 142.9 20.6898 141.556C20.6898 140.584 20.8218 139.696 21.0858 138.892C21.3618 138.088 21.7578 137.392 22.2738 136.804C22.8018 136.216 23.4498 135.766 24.2178 135.454C24.9858 135.13 25.8678 134.968 26.8638 134.968C27.5238 134.968 28.1598 135.034 28.7718 135.166C29.3838 135.298 29.9298 135.484 30.4098 135.724L29.7618 137.092C29.3658 136.912 28.9218 136.75 28.4298 136.606C27.9498 136.462 27.4218 136.39 26.8458 136.39ZM40.7748 148L39.2268 144.022H34.1328L32.6028 148H30.9648L35.9868 135.094H37.4448L42.4488 148H40.7748ZM37.3008 138.694C37.2648 138.598 37.2048 138.424 37.1208 138.172C37.0368 137.92 36.9528 137.662 36.8688 137.398C36.7968 137.122 36.7368 136.912 36.6888 136.768C36.6288 137.008 36.5628 137.254 36.4908 137.506C36.4308 137.746 36.3648 137.968 36.2928 138.172C36.2328 138.376 36.1788 138.55 36.1308 138.694L34.6728 142.582H38.7408L37.3008 138.694ZM47.7529 135.148C48.8209 135.148 49.6969 135.286 50.3809 135.562C51.0769 135.826 51.5929 136.228 51.9289 136.768C52.2649 137.308 52.4329 137.986 52.4329 138.802C52.4329 139.486 52.3069 140.056 52.0549 140.512C51.8029 140.968 51.4789 141.334 51.0829 141.61C50.6989 141.874 50.2909 142.084 49.8589 142.24L53.3869 148H51.4969L48.3829 142.69H45.8269V148H44.2069V135.148H47.7529ZM47.6629 136.552H45.8269V141.322H47.7529C48.4489 141.322 49.0189 141.232 49.4629 141.052C49.9069 140.86 50.2309 140.584 50.4349 140.224C50.6509 139.864 50.7589 139.414 50.7589 138.874C50.7589 138.31 50.6449 137.86 50.4169 137.524C50.2009 137.188 49.8649 136.942 49.4089 136.786C48.9529 136.63 48.3709 136.552 47.6629 136.552ZM60.9842 141.214H65.4302V147.514C64.7342 147.742 64.0322 147.91 63.3242 148.018C62.6162 148.126 61.8122 148.18 60.9122 148.18C59.5802 148.18 58.4582 147.916 57.5462 147.388C56.6342 146.848 55.9382 146.086 55.4582 145.102C54.9902 144.106 54.7562 142.93 54.7562 141.574C54.7562 140.23 55.0202 139.066 55.5482 138.082C56.0762 137.098 56.8322 136.336 57.8162 135.796C58.8122 135.244 60.0122 134.968 61.4162 134.968C62.1362 134.968 62.8142 135.034 63.4502 135.166C64.0982 135.298 64.6982 135.484 65.2502 135.724L64.6382 137.128C64.1822 136.924 63.6662 136.75 63.0902 136.606C62.5262 136.462 61.9382 136.39 61.3262 136.39C60.3062 136.39 59.4302 136.6 58.6982 137.02C57.9662 137.44 57.4082 138.04 57.0242 138.82C56.6402 139.588 56.4482 140.506 56.4482 141.574C56.4482 142.594 56.6102 143.5 56.9342 144.292C57.2702 145.072 57.7922 145.684 58.5002 146.128C59.2082 146.56 60.1382 146.776 61.2902 146.776C61.6742 146.776 62.0102 146.764 62.2982 146.74C62.5982 146.704 62.8682 146.662 63.1082 146.614C63.3602 146.566 63.5942 146.518 63.8102 146.47V142.654H60.9842V141.214ZM76.5639 148L75.0159 144.022H69.9219L68.3919 148H66.7539L71.7759 135.094H73.2339L78.2379 148H76.5639ZM73.0899 138.694C73.0539 138.598 72.9939 138.424 72.9099 138.172C72.8259 137.92 72.7419 137.662 72.6579 137.398C72.5859 137.122 72.5259 136.912 72.4779 136.768C72.4179 137.008 72.3519 137.254 72.2799 137.506C72.2199 137.746 72.1539 137.968 72.0819 138.172C72.0219 138.376 71.9679 138.55 71.9199 138.694L70.4619 142.582H74.5299L73.0899 138.694ZM83.542 135.148C84.61 135.148 85.486 135.286 86.17 135.562C86.866 135.826 87.382 136.228 87.718 136.768C88.054 137.308 88.222 137.986 88.222 138.802C88.222 139.486 88.096 140.056 87.844 140.512C87.592 140.968 87.268 141.334 86.872 141.61C86.488 141.874 86.08 142.084 85.648 142.24L89.176 148H87.286L84.172 142.69H81.616V148H79.996V135.148H83.542ZM83.452 136.552H81.616V141.322H83.542C84.238 141.322 84.808 141.232 85.252 141.052C85.696 140.86 86.02 140.584 86.224 140.224C86.44 139.864 86.548 139.414 86.548 138.874C86.548 138.31 86.434 137.86 86.206 137.524C85.99 137.188 85.654 136.942 85.198 136.786C84.742 136.63 84.16 136.552 83.452 136.552ZM98.2098 148H96.5898V135.148H103.772V136.57H98.2098V141.124H103.43V142.546H98.2098V148ZM117.138 141.556C117.138 142.552 117.012 143.458 116.76 144.274C116.508 145.078 116.13 145.774 115.626 146.362C115.134 146.95 114.516 147.4 113.772 147.712C113.04 148.024 112.188 148.18 111.216 148.18C110.208 148.18 109.332 148.024 108.588 147.712C107.844 147.388 107.226 146.938 106.734 146.362C106.242 145.774 105.876 145.072 105.636 144.256C105.396 143.44 105.276 142.534 105.276 141.538C105.276 140.218 105.492 139.066 105.924 138.082C106.356 137.098 107.01 136.33 107.886 135.778C108.774 135.226 109.89 134.95 111.234 134.95C112.518 134.95 113.598 135.226 114.474 135.778C115.35 136.318 116.01 137.086 116.454 138.082C116.91 139.066 117.138 140.224 117.138 141.556ZM106.986 141.556C106.986 142.636 107.136 143.566 107.436 144.346C107.736 145.126 108.198 145.726 108.822 146.146C109.458 146.566 110.256 146.776 111.216 146.776C112.188 146.776 112.98 146.566 113.592 146.146C114.216 145.726 114.678 145.126 114.978 144.346C115.278 143.566 115.428 142.636 115.428 141.556C115.428 139.936 115.092 138.67 114.42 137.758C113.748 136.834 112.686 136.372 111.234 136.372C110.262 136.372 109.458 136.582 108.822 137.002C108.198 137.41 107.736 138.004 107.436 138.784C107.136 139.552 106.986 140.476 106.986 141.556ZM123.509 148H121.889V136.57H117.875V135.148H127.505V136.57H123.509V148ZM140.306 141.556C140.306 142.552 140.18 143.458 139.928 144.274C139.676 145.078 139.298 145.774 138.794 146.362C138.302 146.95 137.684 147.4 136.94 147.712C136.208 148.024 135.356 148.18 134.384 148.18C133.376 148.18 132.5 148.024 131.756 147.712C131.012 147.388 130.394 146.938 129.902 146.362C129.41 145.774 129.044 145.072 128.804 144.256C128.564 143.44 128.444 142.534 128.444 141.538C128.444 140.218 128.66 139.066 129.092 138.082C129.524 137.098 130.178 136.33 131.054 135.778C131.942 135.226 133.058 134.95 134.402 134.95C135.686 134.95 136.766 135.226 137.642 135.778C138.518 136.318 139.178 137.086 139.622 138.082C140.078 139.066 140.306 140.224 140.306 141.556ZM130.154 141.556C130.154 142.636 130.304 143.566 130.604 144.346C130.904 145.126 131.366 145.726 131.99 146.146C132.626 146.566 133.424 146.776 134.384 146.776C135.356 146.776 136.148 146.566 136.76 146.146C137.384 145.726 137.846 145.126 138.146 144.346C138.446 143.566 138.596 142.636 138.596 141.556C138.596 139.936 138.26 138.67 137.588 137.758C136.916 136.834 135.854 136.372 134.402 136.372C133.43 136.372 132.626 136.582 131.99 137.002C131.366 137.41 130.904 138.004 130.604 138.784C130.304 139.552 130.154 140.476 130.154 141.556Z" fill="black"/>
<path d="M81.34 75.1183C95.1848 75.1183 107.776 79.1285 117.038 84.7797C121.661 87.5995 125.614 90.9278 128.468 94.5451C131.276 98.0988 133.345 102.352 133.345 106.899C133.345 111.782 130.97 115.63 127.549 118.375C124.313 120.975 120.043 122.697 115.507 123.899C106.389 126.309 94.2199 127.123 81.34 127.123C68.4601 127.123 56.2909 126.314 47.1727 123.899C42.6367 122.697 38.3665 120.975 35.1306 118.375C31.7041 115.624 29.335 111.782 29.335 106.899C29.335 102.352 31.4036 98.0988 34.2119 94.5393C37.0664 90.9278 41.013 87.6053 45.6414 84.7739C54.9041 79.1343 67.5009 75.1183 81.34 75.1183ZM81.34 11.5567C89.0025 11.5567 96.3512 14.6006 101.769 20.0188C107.188 25.4371 110.232 32.7858 110.232 40.4483C110.232 48.1109 107.188 55.4596 101.769 60.8778C96.3512 66.2961 89.0025 69.34 81.34 69.34C73.6774 69.34 66.3287 66.2961 60.9105 60.8778C55.4922 55.4596 52.4483 48.1109 52.4483 40.4483C52.4483 32.7858 55.4922 25.4371 60.9105 20.0188C66.3287 14.6006 73.6774 11.5567 81.34 11.5567Z" fill="black"/>
</svg>
