<svg width="28" height="19" viewBox="0 0 28 19" fill="none" xmlns="http://www.w3.org/2000/svg">
<path d="M19 9.4375C19 10.6807 18.4732 11.873 17.5355 12.7521C16.5979 13.6311 15.3261 14.125 14 14.125M9 9.4375C9 8.1943 9.52678 7.00201 10.4645 6.12294C11.4021 5.24386 12.6739 4.75 14 4.75M11 17.5506C11.9838 17.7644 12.9902 17.8732 14 17.875C21.18 17.875 27 12.25 27 9.4375C27 8.185 25.845 6.37375 23.929 4.75M17.5 1.44062C16.3589 1.15071 15.1822 1.00257 14 1C6.82 1 1 6.625 1 9.4375C1 10.675 2.127 12.4562 4 14.0641M5 17.875L23 1" stroke="black" stroke-linecap="round" stroke-linejoin="round"/>
</svg>
