<svg width="13" height="14" viewBox="0 0 13 14" fill="none" xmlns="http://www.w3.org/2000/svg">
<path d="M0.8125 1.83333H0.5V1.27778H4.0625H4.5625V0.777778V0.5H8.4375V0.777778V1.27778H8.9375H12.5V1.83333H12.1875H11.6875V2.33333V12.4444C11.6875 12.7315 11.5874 12.9688 11.3645 13.1826C11.1414 13.3965 10.8836 13.5004 10.5631 13.5H10.5625H2.4375C2.11726 13.5 1.85932 13.396 1.636 13.1823C1.41341 12.9692 1.31292 12.7319 1.3125 12.4441V2.33333V1.83333H0.8125ZM11.0625 2.33333V1.83333H10.5625H2.4375H1.9375V2.33333V12.4444V12.9444H2.4375H10.5625H11.0625V12.4444V2.33333ZM5.1875 4.38889V10.3889H4.5625V4.38889H5.1875ZM8.4375 4.38889V10.3889H7.8125V4.38889H8.4375Z" fill="#059212" stroke="black"/>
</svg>
