<svg width="24" height="24" viewBox="0 0 24 24" fill="none" xmlns="http://www.w3.org/2000/svg">
<path d="M18.58 2.94397C18.2049 2.56903 17.6963 2.3584 17.166 2.3584C16.6357 2.3584 16.127 2.56903 15.752 2.94397L14.107 4.58997L19.41 9.89297L21.055 8.24897C21.2408 8.06324 21.3882 7.84273 21.4887 7.60003C21.5893 7.35732 21.6411 7.09718 21.6411 6.83447C21.6411 6.57176 21.5893 6.31162 21.4887 6.06892C21.3882 5.82621 21.2408 5.6057 21.055 5.41997L18.58 2.94397ZM17.996 11.307L12.693 6.00397L3.85798 14.839L2.78198 21.219L9.16198 20.142L17.996 11.307Z" fill="white"/>
</svg>
