<svg width="14" height="14" viewBox="0 0 14 14" fill="none" xmlns="http://www.w3.org/2000/svg">
<path d="M3.11763 3.82361H2.41176C2.03733 3.82361 1.67825 3.97235 1.41349 4.23711C1.14874 4.50186 1 4.86095 1 5.23538V11.5883C1 11.9628 1.14874 12.3218 1.41349 12.5866C1.67825 12.8514 2.03733 13.0001 2.41176 13.0001H8.76466C9.13908 13.0001 9.49816 12.8514 9.76292 12.5866C10.0277 12.3218 10.1764 11.9628 10.1764 11.5883V10.8825" stroke="black" stroke-width="2" stroke-linecap="round" stroke-linejoin="round"/>
<path d="M9.47056 2.41184L11.5882 4.5295M12.5658 3.53067C12.8438 3.25266 13 2.8756 13 2.48243C13 2.08927 12.8438 1.7122 12.5658 1.43419C12.2878 1.15618 11.9108 1 11.5176 1C11.1244 1 10.7474 1.15618 10.4694 1.43419L4.52942 7.35303V9.47069H6.64705L12.5658 3.53067Z" stroke="black" stroke-width="2" stroke-linecap="round" stroke-linejoin="round"/>
</svg>
