<svg width="21" height="19" viewBox="0 0 21 19" fill="none" xmlns="http://www.w3.org/2000/svg">
<path d="M2 8V14V2V8ZM12 17C12.2833 17 12.521 16.904 12.713 16.712C12.905 16.52 13.0007 16.2827 13 16C12.9993 15.7173 12.9033 15.48 12.712 15.288C12.5207 15.096 12.2833 15 12 15C11.7167 15 11.4793 15.096 11.288 15.288C11.0967 15.48 11.0007 15.7173 11 16C10.9993 16.2827 11.0953 16.5203 11.288 16.713C11.4807 16.9057 11.718 17.0013 12 17ZM18 7C18.2833 7 18.521 6.904 18.713 6.712C18.905 6.52 19.0007 6.28267 19 6C18.9993 5.71733 18.9033 5.48 18.712 5.288C18.5207 5.096 18.2833 5 18 5C17.7167 5 17.4793 5.096 17.288 5.288C17.0967 5.48 17.0007 5.71733 17 6C16.9993 6.28267 17.0953 6.52033 17.288 6.713C17.4807 6.90567 17.718 7.00133 18 7ZM4 7H9V5H4V7ZM4 11H9V9H4V11ZM0 16V0H20V2H2V14H7V16H0ZM12 19C11.1667 19 10.4583 18.7083 9.875 18.125C9.29167 17.5417 9 16.8333 9 16C9 15.35 9.18767 14.7667 9.563 14.25C9.93833 13.7333 10.4173 13.375 11 13.175V10H17V8.825C16.4167 8.625 15.9377 8.26667 15.563 7.75C15.1883 7.23333 15.0007 6.65 15 6C15 5.16667 15.2917 4.45833 15.875 3.875C16.4583 3.29167 17.1667 3 18 3C18.8333 3 19.5417 3.29167 20.125 3.875C20.7083 4.45833 21 5.16667 21 6C21 6.65 20.8127 7.23333 20.438 7.75C20.0633 8.26667 19.584 8.625 19 8.825V12H13V13.175C13.5833 13.375 14.0627 13.7333 14.438 14.25C14.8133 14.7667 15.0007 15.35 15 16C15 16.8333 14.7083 17.5417 14.125 18.125C13.5417 18.7083 12.8333 19 12 19Z" fill="#059212"/>
</svg>
