<svg width="30" height="30" viewBox="0 0 30 30" fill="none" xmlns="http://www.w3.org/2000/svg">
<path d="M25 3.125H5C3.96447 3.125 3.125 3.96447 3.125 5V25C3.125 26.0355 3.96447 26.875 5 26.875H25C26.0355 26.875 26.875 26.0355 26.875 25V5C26.875 3.96447 26.0355 3.125 25 3.125Z" stroke="#059212" stroke-width="2"/>
<path d="M6.875 7.5H11.875V22.5H6.875V7.5ZM15.625 7.5H23.125V11.25H15.625V7.5Z" stroke="#059212" stroke-width="2" stroke-linecap="round" stroke-linejoin="round"/>
<path d="M15.625 16.25C16.3154 16.25 16.875 15.6904 16.875 15C16.875 14.3096 16.3154 13.75 15.625 13.75C14.9346 13.75 14.375 14.3096 14.375 15C14.375 15.6904 14.9346 16.25 15.625 16.25Z" fill="#059212"/>
<path d="M15.625 20C16.3154 20 16.875 19.4404 16.875 18.75C16.875 18.0596 16.3154 17.5 15.625 17.5C14.9346 17.5 14.375 18.0596 14.375 18.75C14.375 19.4404 14.9346 20 15.625 20Z" fill="#059212"/>
<path d="M15.625 23.75C16.3154 23.75 16.875 23.1904 16.875 22.5C16.875 21.8096 16.3154 21.25 15.625 21.25C14.9346 21.25 14.375 21.8096 14.375 22.5C14.375 23.1904 14.9346 23.75 15.625 23.75Z" fill="#059212"/>
<path d="M19.375 16.25C20.0654 16.25 20.625 15.6904 20.625 15C20.625 14.3096 20.0654 13.75 19.375 13.75C18.6846 13.75 18.125 14.3096 18.125 15C18.125 15.6904 18.6846 16.25 19.375 16.25Z" fill="#059212"/>
<path d="M19.375 20C20.0654 20 20.625 19.4404 20.625 18.75C20.625 18.0596 20.0654 17.5 19.375 17.5C18.6846 17.5 18.125 18.0596 18.125 18.75C18.125 19.4404 18.6846 20 19.375 20Z" fill="#059212"/>
<path d="M19.375 23.75C20.0654 23.75 20.625 23.1904 20.625 22.5C20.625 21.8096 20.0654 21.25 19.375 21.25C18.6846 21.25 18.125 21.8096 18.125 22.5C18.125 23.1904 18.6846 23.75 19.375 23.75Z" fill="#059212"/>
<path d="M23.125 16.25C23.8154 16.25 24.375 15.6904 24.375 15C24.375 14.3096 23.8154 13.75 23.125 13.75C22.4346 13.75 21.875 14.3096 21.875 15C21.875 15.6904 22.4346 16.25 23.125 16.25Z" fill="#059212"/>
<path d="M23.125 20C23.8154 20 24.375 19.4404 24.375 18.75C24.375 18.0596 23.8154 17.5 23.125 17.5C22.4346 17.5 21.875 18.0596 21.875 18.75C21.875 19.4404 22.4346 20 23.125 20Z" fill="#059212"/>
<path d="M23.125 23.75C23.8154 23.75 24.375 23.1904 24.375 22.5C24.375 21.8096 23.8154 21.25 23.125 21.25C22.4346 21.25 21.875 21.8096 21.875 22.5C21.875 23.1904 22.4346 23.75 23.125 23.75Z" fill="#059212"/>
</svg>
