<svg width="35" height="35" viewBox="0 0 35 35" fill="none" xmlns="http://www.w3.org/2000/svg">
<path opacity="0.5" fill-rule="evenodd" clip-rule="evenodd" d="M10.5729 9.12625V9.47917C10.5729 9.76925 10.6881 10.0474 10.8932 10.2526C11.0983 10.4577 11.3765 10.5729 11.6666 10.5729C11.9567 10.5729 12.2349 10.4577 12.44 10.2526C12.6451 10.0474 12.7604 9.76925 12.7604 9.47917V9.11458H22.2395V9.47917C22.2395 9.76925 22.3548 10.0474 22.5599 10.2526C22.765 10.4577 23.0432 10.5729 23.3333 10.5729C23.6234 10.5729 23.9016 10.4577 24.1067 10.2526C24.3118 10.0474 24.427 9.76925 24.427 9.47917V9.12625C24.5884 9.13208 24.7352 9.14035 24.8675 9.15104C25.2875 9.18458 25.4872 9.24583 25.6185 9.31292C25.9627 9.48792 26.2412 9.76646 26.4162 10.1106C26.4833 10.2419 26.5445 10.4417 26.5781 10.8602C26.6131 11.2919 26.6145 11.8519 26.6145 12.6875V13.4896H8.38538V12.6875C8.38538 11.8533 8.38538 11.2919 8.42183 10.8602C8.45538 10.4417 8.51663 10.2419 8.58371 10.1106C8.75858 9.76706 9.03786 9.48778 9.38142 9.31292C9.51267 9.24583 9.71246 9.18458 10.131 9.15104C10.2781 9.13905 10.4254 9.13079 10.5729 9.12625ZM15.3125 10.2083C15.0224 10.2083 14.7442 10.3236 14.5391 10.5287C14.3339 10.7338 14.2187 11.012 14.2187 11.3021C14.2187 11.5922 14.3339 11.8704 14.5391 12.0755C14.7442 12.2806 15.0224 12.3958 15.3125 12.3958H19.6875C19.9775 12.3958 20.2557 12.2806 20.4609 12.0755C20.666 11.8704 20.7812 11.5922 20.7812 11.3021C20.7812 11.012 20.666 10.7338 20.4609 10.5287C20.2557 10.3236 19.9775 10.2083 19.6875 10.2083H15.3125Z" fill="#059212"/>
<path d="M12.3958 20.4167C12.8793 20.4167 13.3429 20.2246 13.6848 19.8827C14.0267 19.5409 14.2187 19.0772 14.2187 18.5938C14.2187 18.1103 14.0267 17.6466 13.6848 17.3048C13.3429 16.9629 12.8793 16.7708 12.3958 16.7708C11.9123 16.7708 11.4487 16.9629 11.1068 17.3048C10.7649 17.6466 10.5729 18.1103 10.5729 18.5938C10.5729 19.0772 10.7649 19.5409 11.1068 19.8827C11.4487 20.2246 11.9123 20.4167 12.3958 20.4167ZM12.3958 25.5208C12.8793 25.5208 13.3429 25.3288 13.6848 24.9869C14.0267 24.6451 14.2187 24.1814 14.2187 23.6979C14.2187 23.2144 14.0267 22.7508 13.6848 22.4089C13.3429 22.0671 12.8793 21.875 12.3958 21.875C11.9123 21.875 11.4487 22.0671 11.1068 22.4089C10.7649 22.7508 10.5729 23.2144 10.5729 23.6979C10.5729 24.1814 10.7649 24.6451 11.1068 24.9869C11.4487 25.3288 11.9123 25.5208 12.3958 25.5208ZM19.3229 18.5938C19.3229 19.0772 19.1308 19.5409 18.789 19.8827C18.4471 20.2246 17.9834 20.4167 17.5 20.4167C17.0165 20.4167 16.5528 20.2246 16.211 19.8827C15.8691 19.5409 15.677 19.0772 15.677 18.5938C15.677 18.1103 15.8691 17.6466 16.211 17.3048C16.5528 16.9629 17.0165 16.7708 17.5 16.7708C17.9834 16.7708 18.4471 16.9629 18.789 17.3048C19.1308 17.6466 19.3229 18.1103 19.3229 18.5938ZM17.5 25.5208C17.9834 25.5208 18.4471 25.3288 18.789 24.9869C19.1308 24.6451 19.3229 24.1814 19.3229 23.6979C19.3229 23.2144 19.1308 22.7508 18.789 22.4089C18.4471 22.0671 17.9834 21.875 17.5 21.875C17.0165 21.875 16.5528 22.0671 16.211 22.4089C15.8691 22.7508 15.677 23.2144 15.677 23.6979C15.677 24.1814 15.8691 24.6451 16.211 24.9869C16.5528 25.3288 17.0165 25.5208 17.5 25.5208ZM24.427 18.5938C24.427 19.0772 24.235 19.5409 23.8931 19.8827C23.5513 20.2246 23.0876 20.4167 22.6041 20.4167C22.1207 20.4167 21.657 20.2246 21.3151 19.8827C20.9733 19.5409 20.7812 19.0772 20.7812 18.5938C20.7812 18.1103 20.9733 17.6466 21.3151 17.3048C21.657 16.9629 22.1207 16.7708 22.6041 16.7708C23.0876 16.7708 23.5513 16.9629 23.8931 17.3048C24.235 17.6466 24.427 18.1103 24.427 18.5938Z" fill="#059212"/>
<path fill-rule="evenodd" clip-rule="evenodd" d="M11.6666 4.73958C11.9567 4.73958 12.2349 4.85482 12.44 5.05994C12.6451 5.26505 12.7604 5.54325 12.7604 5.83333V6.92708H22.2395V5.83333C22.2395 5.54325 22.3548 5.26505 22.5599 5.05994C22.765 4.85482 23.0432 4.73958 23.3333 4.73958C23.6234 4.73958 23.9016 4.85482 24.1067 5.05994C24.3118 5.26505 24.427 5.54325 24.427 5.83333V6.93875C24.6487 6.94458 24.8553 6.95528 25.0468 6.97083C25.601 7.01458 26.1202 7.11375 26.6116 7.36458C27.3664 7.7491 27.98 8.36273 28.3645 9.1175C28.6154 9.60896 28.7145 10.1281 28.7583 10.6823C28.802 11.2146 28.802 11.8635 28.802 12.6438V23.8146C28.802 24.5948 28.802 25.2437 28.7583 25.776C28.7145 26.3302 28.6154 26.8494 28.3645 27.3408C27.9804 28.0954 27.3673 28.709 26.6131 29.0938C26.1202 29.3446 25.601 29.4437 25.0468 29.4875C24.5145 29.5312 23.8656 29.5312 23.0868 29.5312H11.9145C11.1343 29.5312 10.4854 29.5312 9.95308 29.4875C9.39892 29.4437 8.87975 29.3446 8.38829 29.0938C7.63397 28.71 7.02039 28.0974 6.63538 27.3437C6.38454 26.8508 6.28538 26.3317 6.24163 25.7775C6.19788 25.2452 6.19788 24.5963 6.19788 23.8175V12.6438C6.19788 11.8635 6.19788 11.2146 6.24163 10.6823C6.28538 10.1281 6.38454 9.60896 6.63538 9.1175C7.0199 8.36273 7.63353 7.7491 8.38829 7.36458C8.87975 7.11375 9.39892 7.01458 9.95308 6.97083C10.1446 6.95528 10.3512 6.94458 10.5729 6.93875V5.83333C10.5729 5.6897 10.6012 5.54747 10.6561 5.41477C10.7111 5.28207 10.7917 5.1615 10.8932 5.05994C10.9948 4.95837 11.1154 4.87781 11.2481 4.82284C11.3808 4.76787 11.523 4.73958 11.6666 4.73958ZM10.5729 9.47917V9.12625C10.4254 9.13079 10.2781 9.13905 10.131 9.15104C9.71246 9.18458 9.51267 9.24583 9.38142 9.31292C9.03786 9.48778 8.75857 9.76706 8.58371 10.1106C8.51663 10.2419 8.45538 10.4417 8.42183 10.8602C8.38683 11.2919 8.38538 11.8519 8.38538 12.6875V13.4896H26.6145V12.6875C26.6145 11.8533 26.6145 11.2919 26.5781 10.8602C26.5445 10.4417 26.4833 10.2419 26.4162 10.1106C26.2413 9.76706 25.9621 9.48778 25.6185 9.31292C25.4872 9.24583 25.2875 9.18458 24.8675 9.15104C24.7209 9.13908 24.574 9.13081 24.427 9.12625V9.47917C24.427 9.76925 24.3118 10.0474 24.1067 10.2526C23.9016 10.4577 23.6234 10.5729 23.3333 10.5729C23.0432 10.5729 22.765 10.4577 22.5599 10.2526C22.3548 10.0474 22.2395 9.76925 22.2395 9.47917V9.11458H12.7604V9.47917C12.7604 9.76925 12.6451 10.0474 12.44 10.2526C12.2349 10.4577 11.9567 10.5729 11.6666 10.5729C11.3765 10.5729 11.0983 10.4577 10.8932 10.2526C10.6881 10.0474 10.5729 9.76925 10.5729 9.47917ZM26.6145 14.9479H8.38538V23.7708C8.38538 24.605 8.38538 25.1665 8.42183 25.5967C8.45538 26.0167 8.51663 26.2165 8.58371 26.3477C8.75871 26.6919 9.03725 26.9704 9.38142 27.1454C9.51267 27.2125 9.71246 27.2737 10.131 27.3073C10.5627 27.3423 11.1227 27.3437 11.9583 27.3437H23.0416C23.8758 27.3437 24.4373 27.3437 24.8675 27.3073C25.2875 27.2737 25.4872 27.2125 25.6185 27.1454C25.9621 26.9706 26.2413 26.6913 26.4162 26.3477C26.4833 26.2165 26.5445 26.0167 26.5781 25.5967C26.6131 25.1665 26.6145 24.605 26.6145 23.7708V14.9479Z" fill="#059212"/>
</svg>
