<svg width="28" height="26" viewBox="0 0 28 26" fill="none" xmlns="http://www.w3.org/2000/svg">
<path d="M14 19.8095C14.9283 19.8095 15.8185 19.5486 16.4749 19.0843C17.1313 18.6199 17.5 17.9901 17.5 17.3333C17.5 16.6766 17.1313 16.0468 16.4749 15.5824C15.8185 15.118 14.9283 14.8571 14 14.8571C13.0717 14.8571 12.1815 15.118 11.5251 15.5824C10.8687 16.0468 10.5 16.6766 10.5 17.3333C10.5 17.9901 10.8687 18.6199 11.5251 19.0843C12.1815 19.5486 13.0717 19.8095 14 19.8095ZM24.5 8.66667C25.4283 8.66667 26.3185 8.92755 26.9749 9.39193C27.6313 9.8563 28 10.4861 28 11.1429V23.5238C28 24.1805 27.6313 24.8104 26.9749 25.2747C26.3185 25.7391 25.4283 26 24.5 26H3.5C2.57174 26 1.6815 25.7391 1.02513 25.2747C0.368749 24.8104 0 24.1805 0 23.5238V11.1429C0 10.4861 0.368749 9.8563 1.02513 9.39193C1.6815 8.92755 2.57174 8.66667 3.5 8.66667H5.25V6.19048C5.25 4.54866 6.17187 2.97409 7.81282 1.81315C9.45376 0.652209 11.6794 0 14 0C15.1491 0 16.2869 0.160121 17.3485 0.471222C18.4101 0.782323 19.3747 1.23831 20.1872 1.81315C20.9997 2.38799 21.6442 3.07042 22.0839 3.82148C22.5237 4.57255 22.75 5.37753 22.75 6.19048V8.66667H24.5ZM14 2.47619C12.6076 2.47619 11.2723 2.86752 10.2877 3.56408C9.30312 4.26064 8.75 5.20539 8.75 6.19048V8.66667H19.25V6.19048C19.25 5.20539 18.6969 4.26064 17.7123 3.56408C16.7277 2.86752 15.3924 2.47619 14 2.47619Z" fill="#059212"/>
</svg>
