<svg width="30" height="30" viewBox="0 0 30 30" fill="none" xmlns="http://www.w3.org/2000/svg">
<path d="M8.75 7.5H6.25M8.75 11.25H6.25M8.75 15H6.25M8.75 18.75H6.25M8.75 22.5H6.25M20 21.25C20 20.587 19.7366 19.9511 19.2678 19.4822C18.7989 19.0134 18.163 18.75 17.5 18.75H15C14.337 18.75 13.7011 19.0134 13.2322 19.4822C12.7634 19.9511 12.5 20.587 12.5 21.25M8.75 3.75H22.5C22.8315 3.75 23.1495 3.8817 23.3839 4.11612C23.6183 4.35054 23.75 4.66848 23.75 5V25C23.75 25.3315 23.6183 25.6495 23.3839 25.8839C23.1495 26.1183 22.8315 26.25 22.5 26.25H8.75C8.41848 26.25 8.10054 26.1183 7.86612 25.8839C7.6317 25.6495 7.5 25.3315 7.5 25V5C7.5 4.66848 7.6317 4.35054 7.86612 4.11612C8.10054 3.8817 8.41848 3.75 8.75 3.75ZM18.75 12.5C18.75 13.163 18.4866 13.7989 18.0178 14.2678C17.5489 14.7366 16.913 15 16.25 15C15.587 15 14.9511 14.7366 14.4822 14.2678C14.0134 13.7989 13.75 13.163 13.75 12.5C13.75 11.837 14.0134 11.2011 14.4822 10.7322C14.9511 10.2634 15.587 10 16.25 10C16.913 10 17.5489 10.2634 18.0178 10.7322C18.4866 11.2011 18.75 11.837 18.75 12.5Z" stroke="#059212" stroke-width="2" stroke-linecap="round" stroke-linejoin="round"/>
</svg>
