<svg width="25" height="25" viewBox="0 0 25 25" fill="none" xmlns="http://www.w3.org/2000/svg">
<path d="M12.5 15.625H7.8125V14.7095C7.8125 14.4002 7.86947 14.1032 7.9834 13.8184C8.07292 13.5905 8.20719 13.3708 8.38623 13.1592C8.56527 12.9476 8.76872 12.7319 8.99658 12.5122C9.22445 12.2925 9.44824 12.089 9.66797 11.9019C9.8877 11.7147 10.0952 11.5153 10.2905 11.3037C10.4858 11.0921 10.6405 10.9009 10.7544 10.73C10.8683 10.5591 10.9294 10.3678 10.9375 10.1562C10.9375 9.94466 10.8602 9.76156 10.7056 9.60693C10.5509 9.45231 10.3678 9.375 10.1562 9.375C9.96908 9.375 9.80632 9.43197 9.66797 9.5459C9.52962 9.65983 9.43604 9.81038 9.38721 9.99756L7.86133 9.68018C7.91016 9.41162 8.00374 9.16341 8.14209 8.93555C8.28044 8.70768 8.45947 8.51237 8.6792 8.34961C8.89893 8.18685 9.13086 8.05664 9.375 7.95898C9.61914 7.86133 9.87956 7.8125 10.1562 7.8125C10.4818 7.8125 10.7869 7.87354 11.0718 7.99561C11.3566 8.11768 11.6048 8.28451 11.8164 8.49609C12.028 8.70768 12.1948 8.95589 12.3169 9.24072C12.439 9.52555 12.5 9.83073 12.5 10.1562C12.5 10.4736 12.4552 10.7585 12.3657 11.0107C12.2762 11.263 12.1501 11.499 11.9873 11.7188C11.8245 11.9385 11.6455 12.146 11.4502 12.3413C11.2549 12.5366 11.0474 12.7238 10.8276 12.9028C10.6079 13.0819 10.4004 13.269 10.2051 13.4644C10.0098 13.6597 9.81852 13.859 9.63135 14.0625H12.5V15.625ZM25 3.125V20.3125H0V3.125H25ZM23.4375 4.6875H1.5625V18.75H23.4375V4.6875ZM4.84619 9.60693C4.61019 9.74528 4.3335 9.87142 4.01611 9.98535C3.69873 10.0993 3.40169 10.1562 3.125 10.1562V8.59375C3.21452 8.59375 3.34066 8.56934 3.50342 8.52051C3.66618 8.47168 3.82894 8.41064 3.9917 8.3374C4.15446 8.26416 4.30094 8.17871 4.43115 8.08105C4.56136 7.9834 4.65088 7.89388 4.69971 7.8125H6.25V15.625H4.84619V9.60693ZM16.1133 15.625C15.7715 15.625 15.4419 15.568 15.1245 15.4541C14.8071 15.3402 14.502 15.1896 14.209 15.0024V13.4521C14.3717 13.5742 14.5142 13.68 14.6362 13.7695C14.7583 13.859 14.8885 13.9323 15.0269 13.9893C15.1652 14.0462 15.3035 14.0869 15.4419 14.1113C15.5802 14.1357 15.7633 14.1479 15.9912 14.1479C16.1702 14.1479 16.3411 14.1317 16.5039 14.0991C16.6667 14.0666 16.8091 14.0055 16.9312 13.916C17.0532 13.8265 17.1549 13.7126 17.2363 13.5742C17.3177 13.4359 17.3543 13.265 17.3462 13.0615C17.3462 12.8092 17.2485 12.6302 17.0532 12.5244C16.8579 12.4186 16.63 12.3454 16.3696 12.3047C16.1092 12.264 15.8447 12.2518 15.5762 12.2681C15.3076 12.2843 15.092 12.2925 14.9292 12.2925V11.1084H15.6372C15.8895 11.1084 16.1255 11.0799 16.3452 11.0229C16.5649 10.966 16.748 10.8602 16.8945 10.7056C17.041 10.5509 17.1143 10.319 17.1143 10.0098C17.1143 9.66797 17.0125 9.4401 16.8091 9.32617C16.6056 9.21224 16.3452 9.15527 16.0278 9.15527C15.7023 9.15527 15.4215 9.22852 15.1855 9.375C14.9495 9.52148 14.7135 9.69645 14.4775 9.8999V8.31299C14.7542 8.12581 15.0635 7.99561 15.4053 7.92236C15.7471 7.84912 16.0807 7.8125 16.4062 7.8125C16.6992 7.8125 16.984 7.85319 17.2607 7.93457C17.5374 8.01595 17.7816 8.13395 17.9932 8.28857C18.2048 8.4432 18.3797 8.64258 18.5181 8.88672C18.6564 9.13086 18.7215 9.41162 18.7134 9.729C18.7134 10.1196 18.6361 10.4655 18.4814 10.7666C18.3268 11.0677 18.0745 11.3159 17.7246 11.5112C18.0827 11.6333 18.3757 11.849 18.6035 12.1582C18.8314 12.4674 18.9453 12.8133 18.9453 13.1958C18.9453 13.5783 18.8639 13.9201 18.7012 14.2212C18.5384 14.5223 18.3268 14.7746 18.0664 14.978C17.806 15.1815 17.5008 15.3402 17.1509 15.4541C16.8009 15.568 16.4551 15.625 16.1133 15.625Z" fill="#059212"/>
</svg>
