<svg width="25" height="20" viewBox="0 0 25 20" fill="none" xmlns="http://www.w3.org/2000/svg">
<path fill-rule="evenodd" clip-rule="evenodd" d="M1.465 1.465C-1.49012e-07 2.92875 0 5.28625 0 10C0 14.7137 -1.49012e-07 17.0712 1.465 18.535C2.93 19.9987 5.28625 20 10 20H15C19.7137 20 22.0712 20 23.535 18.535C24.9987 17.07 25 14.7137 25 10C25 5.28625 25 2.92875 23.535 1.465C22.07 0.00124991 19.7137 0 15 0H10C5.28625 0 2.92875 -1.49012e-07 1.465 1.465ZM13.4375 7.5C13.4375 7.25136 13.3387 7.0129 13.1629 6.83709C12.9871 6.66127 12.7486 6.5625 12.5 6.5625C12.2514 6.5625 12.0129 6.66127 11.8371 6.83709C11.6613 7.0129 11.5625 7.25136 11.5625 7.5V8.37625L10.8037 7.93875C10.5892 7.82452 10.3388 7.79806 10.1051 7.86493C9.87149 7.9318 9.67295 8.08678 9.55136 8.2972C9.42978 8.50763 9.39466 8.75704 9.4534 8.99285C9.51214 9.22867 9.66016 9.43246 9.86625 9.56125L10.625 9.99875L9.86625 10.4375C9.65076 10.5618 9.49349 10.7667 9.42902 11.0069C9.36455 11.2472 9.39818 11.5033 9.5225 11.7188C9.64682 11.9342 9.85165 12.0915 10.0919 12.156C10.3322 12.2204 10.5883 12.1868 10.8037 12.0625L11.5625 11.6237V12.5C11.5625 12.7486 11.6613 12.9871 11.8371 13.1629C12.0129 13.3387 12.2514 13.4375 12.5 13.4375C12.7486 13.4375 12.9871 13.3387 13.1629 13.1629C13.3387 12.9871 13.4375 12.7486 13.4375 12.5V11.625L14.1963 12.0625C14.4117 12.1868 14.6678 12.2204 14.9081 12.156C15.1483 12.0915 15.3532 11.9342 15.4775 11.7188C15.6018 11.5033 15.6354 11.2472 15.571 11.0069C15.5065 10.7667 15.3492 10.5618 15.1338 10.4375L14.375 10L15.1338 9.5625C15.3492 9.43818 15.5065 9.23335 15.571 8.99307C15.6354 8.75279 15.6018 8.49674 15.4775 8.28125C15.3532 8.06576 15.1483 7.90848 14.9081 7.84402C14.6678 7.77955 14.4117 7.81318 14.1963 7.9375L13.4375 8.375V7.5ZM5.91625 6.5625C6.16489 6.5625 6.40335 6.66127 6.57916 6.83709C6.75498 7.0129 6.85375 7.25136 6.85375 7.5V8.375L7.61125 7.9375C7.82674 7.81318 8.08279 7.77955 8.32307 7.84402C8.56335 7.90848 8.76818 8.06576 8.8925 8.28125C9.01682 8.49674 9.05045 8.75279 8.98598 8.99307C8.92152 9.23335 8.76424 9.43818 8.54875 9.5625L7.79 10L8.54875 10.4375C8.65545 10.4991 8.74898 10.581 8.824 10.6787C8.89902 10.7764 8.95406 10.888 8.98598 11.0069C9.0179 11.1259 9.02607 11.25 9.01003 11.3721C8.994 11.4943 8.95406 11.6121 8.8925 11.7188C8.83094 11.8254 8.74897 11.919 8.65127 11.994C8.55357 12.069 8.44204 12.1241 8.32307 12.156C8.20409 12.1879 8.08 12.1961 7.95786 12.18C7.83573 12.164 7.71795 12.1241 7.61125 12.0625L6.85375 11.625V12.5C6.85375 12.7486 6.75498 12.9871 6.57916 13.1629C6.40335 13.3387 6.16489 13.4375 5.91625 13.4375C5.66761 13.4375 5.42915 13.3387 5.25334 13.1629C5.07752 12.9871 4.97875 12.7486 4.97875 12.5V11.6237L4.21875 12.0613C4.00425 12.1755 3.75377 12.2019 3.52013 12.1351C3.28649 12.0682 3.08795 11.9132 2.96636 11.7028C2.84478 11.4924 2.80966 11.243 2.8684 11.0071C2.92714 10.7713 3.07516 10.5675 3.28125 10.4387L4.04 10L3.28125 9.5625C3.17455 9.50094 3.08102 9.41897 3.006 9.32127C2.93098 9.22357 2.87594 9.11204 2.84402 8.99307C2.8121 8.87409 2.80393 8.75 2.81996 8.62786C2.836 8.50573 2.87594 8.38795 2.9375 8.28125C2.99906 8.17455 3.08103 8.08102 3.17873 8.006C3.27643 7.93098 3.38796 7.87594 3.50693 7.84402C3.62591 7.8121 3.75 7.80393 3.87214 7.81996C3.99427 7.836 4.11205 7.87594 4.21875 7.9375L4.97875 8.37625V7.5C4.97875 7.25136 5.07752 7.0129 5.25334 6.83709C5.42915 6.66127 5.66761 6.5625 5.91625 6.5625ZM20.0225 7.5C20.0225 7.25136 19.9237 7.0129 19.7479 6.83709C19.5721 6.66127 19.3336 6.5625 19.085 6.5625C18.8364 6.5625 18.5979 6.66127 18.4221 6.83709C18.2463 7.0129 18.1475 7.25136 18.1475 7.5V8.37625L17.3888 7.93875C17.1742 7.82452 16.9238 7.79806 16.6901 7.86493C16.4565 7.9318 16.2579 8.08678 16.1364 8.2972C16.0148 8.50763 15.9797 8.75704 16.0384 8.99285C16.0971 9.22867 16.2452 9.43246 16.4513 9.56125L17.21 9.99875L16.45 10.4375C16.2345 10.5618 16.0772 10.7667 16.0128 11.0069C15.9483 11.2472 15.9819 11.5033 16.1063 11.7188C16.2306 11.9342 16.4354 12.0915 16.6757 12.156C16.916 12.2204 17.172 12.1868 17.3875 12.0625L18.1475 11.6237V12.5C18.1475 12.7486 18.2463 12.9871 18.4221 13.1629C18.5979 13.3387 18.8364 13.4375 19.085 13.4375C19.3336 13.4375 19.5721 13.3387 19.7479 13.1629C19.9237 12.9871 20.0225 12.7486 20.0225 12.5V11.625L20.7812 12.0625C20.9967 12.1868 21.2528 12.2204 21.4931 12.156C21.7333 12.0915 21.9382 11.9342 22.0625 11.7188C22.1868 11.5033 22.2204 11.2472 22.156 11.0069C22.0915 10.7667 21.9342 10.5618 21.7188 10.4375L20.96 10L21.7188 9.5625C21.9342 9.43818 22.0915 9.23335 22.156 8.99307C22.2204 8.75279 22.1868 8.49674 22.0625 8.28125C21.9382 8.06576 21.7333 7.90848 21.4931 7.84402C21.2528 7.77955 20.9967 7.81318 20.7812 7.9375L20.0225 8.375V7.5Z" fill="#059212"/>
</svg>
