<svg width="37" height="33" viewBox="0 0 37 33" fill="none" xmlns="http://www.w3.org/2000/svg">
<path d="M12.95 12.3832C12.95 12.1644 13.0475 11.9546 13.221 11.7999C13.3944 11.6452 13.6297 11.5582 13.875 11.5582H16.2615L16.6704 9.73995C16.7245 9.53065 16.8679 9.34841 17.0703 9.23197C17.2726 9.11553 17.5179 9.07407 17.754 9.1164C17.9901 9.15873 18.1984 9.28151 18.3346 9.45865C18.4708 9.63579 18.5242 9.85332 18.4834 10.065L18.1504 11.5582H19.9634L20.3704 9.7416C20.4263 9.53438 20.5699 9.35449 20.7712 9.23963C20.9725 9.12477 21.2159 9.08385 21.4502 9.12545C21.6846 9.16704 21.8918 9.28792 22.0285 9.46276C22.1652 9.6376 22.2207 9.85283 22.1834 10.0633L21.8504 11.5582H23.5894C23.8347 11.5582 24.07 11.6452 24.2434 11.7999C24.4169 11.9546 24.5144 12.1644 24.5144 12.3832C24.5144 12.6021 24.4169 12.8119 24.2434 12.9666C24.07 13.1213 23.8347 13.2082 23.5894 13.2082H21.4804L21.1104 14.8582H23.1269C23.3722 14.8582 23.6075 14.9452 23.7809 15.0999C23.9544 15.2546 24.0519 15.4644 24.0519 15.6832C24.0519 15.9021 23.9544 16.1119 23.7809 16.2666C23.6075 16.4213 23.3722 16.5082 23.1269 16.5082H20.7422L20.3389 18.3117C20.2838 18.5199 20.1402 18.7008 19.9384 18.8164C19.7366 18.9319 19.4924 18.9731 19.2573 18.9311C19.0221 18.8892 18.8144 18.7674 18.678 18.5915C18.5415 18.4156 18.487 18.1994 18.5259 17.9883L18.8552 16.5082H17.0385L16.6334 18.3117C16.6132 18.421 16.5686 18.5255 16.5022 18.6191C16.4358 18.7126 16.349 18.7933 16.2469 18.8563C16.1448 18.9193 16.0295 18.9633 15.9079 18.9857C15.7864 19.0082 15.661 19.0085 15.5392 18.9868C15.4175 18.9651 15.3019 18.9217 15.1993 18.8593C15.0968 18.7969 15.0094 18.7168 14.9423 18.6236C14.8752 18.5304 14.8298 18.4261 14.8089 18.317C14.7879 18.2079 14.7919 18.0961 14.8204 17.9883L15.1534 16.5082H13.4181C13.1727 16.5082 12.9375 16.4213 12.764 16.2666C12.5905 16.1119 12.4931 15.9021 12.4931 15.6832C12.4931 15.4644 12.5905 15.2546 12.764 15.0999C12.9375 14.9452 13.1727 14.8582 13.4181 14.8582H15.5215L15.8915 13.2082H13.875C13.6297 13.2082 13.3944 13.1213 13.221 12.9666C13.0475 12.8119 12.95 12.6021 12.95 12.3832ZM19.2252 14.8582L19.5952 13.2082H17.7785L17.4085 14.8582H19.2252ZM11.1 3.3H25.9074C26.8887 3.3 27.8298 3.64768 28.5237 4.26655C29.2176 4.88542 29.6074 5.72478 29.6074 6.6V25.5766C29.6074 25.7955 29.51 26.0053 29.3365 26.16C29.163 26.3147 28.9277 26.4016 28.6824 26.4016H9.25002C9.25051 26.839 9.44564 27.2582 9.79253 27.5673C10.1394 27.8764 10.6097 28.05 11.1 28.05H28.6824C28.9277 28.05 29.163 28.1369 29.3365 28.2916C29.51 28.4464 29.6074 28.6562 29.6074 28.875C29.6074 29.0938 29.51 29.3036 29.3365 29.4584C29.163 29.6131 28.9277 29.7 28.6824 29.7H11.1C10.1187 29.7 9.17761 29.3523 8.48373 28.7335C7.78984 28.1146 7.40002 27.2752 7.40002 26.4V6.6C7.40002 5.72478 7.78984 4.88542 8.48373 4.26655C9.17761 3.64768 10.1187 3.3 11.1 3.3ZM9.25002 24.7516H27.7574V6.6C27.7574 6.16239 27.5625 5.74271 27.2156 5.43327C26.8686 5.12384 26.3981 4.95 25.9074 4.95H11.1C10.6094 4.95 10.1388 5.12384 9.79188 5.43327C9.44493 5.74271 9.25002 6.16239 9.25002 6.6V24.7516Z" fill="#059212"/>
</svg>
