<svg width="28" height="23" viewBox="0 0 28 23" fill="none" xmlns="http://www.w3.org/2000/svg">
<path d="M25.2 0H2.8C1.26 0 0.014 1.29375 0.014 2.875L0 20.125C0 21.7062 1.26 23 2.8 23H25.2C26.74 23 28 21.7062 28 20.125V2.875C28 1.29375 26.74 0 25.2 0ZM24.64 6.10938L14.742 12.4631C14.294 12.7506 13.706 12.7506 13.258 12.4631L3.36 6.10938C3.21962 6.02846 3.09669 5.91914 2.99864 5.78803C2.9006 5.65692 2.82949 5.50674 2.78961 5.3466C2.74972 5.18645 2.7419 5.01966 2.76662 4.85632C2.79133 4.69298 2.84807 4.53648 2.93339 4.39631C3.01872 4.25613 3.13085 4.13519 3.26302 4.04081C3.39518 3.94642 3.54462 3.88055 3.70229 3.84718C3.85997 3.81381 4.0226 3.81364 4.18034 3.84668C4.33808 3.87971 4.48765 3.94527 4.62 4.03937L14 10.0625L23.38 4.03937C23.5124 3.94527 23.6619 3.87971 23.8197 3.84668C23.9774 3.81364 24.14 3.81381 24.2977 3.84718C24.4554 3.88055 24.6048 3.94642 24.737 4.04081C24.8691 4.13519 24.9813 4.25613 25.0666 4.39631C25.1519 4.53648 25.2087 4.69298 25.2334 4.85632C25.2581 5.01966 25.2503 5.18645 25.2104 5.3466C25.1705 5.50674 25.0994 5.65692 25.0014 5.78803C24.9033 5.91914 24.7804 6.02846 24.64 6.10938Z" fill="#059212"/>
</svg>
