<svg width="33" height="36" viewBox="0 0 33 36" fill="none" xmlns="http://www.w3.org/2000/svg">
<path d="M29.2829 10.0735H3.71663C2.85371 10.0735 2.15417 10.8366 2.15417 11.778V27.7215C2.15417 28.6629 2.85371 29.426 3.71663 29.426H29.2829C30.1458 29.426 30.8454 28.6629 30.8454 27.7215V11.778C30.8454 10.8366 30.1458 10.0735 29.2829 10.0735Z" fill="#CDE9D0"/>
<path d="M17.8026 5.2995H15.1035C14.7093 5.2995 14.3898 5.64805 14.3898 6.078V12.3575C14.3898 12.7875 14.7093 13.136 15.1035 13.136H17.8026C18.1967 13.136 18.5162 12.7875 18.5162 12.3575V6.078C18.5162 5.64805 18.1967 5.2995 17.8026 5.2995Z" fill="#06D001"/>
<path d="M7.9764 15.325H25.2574C25.6033 15.325 25.9459 15.3994 26.2655 15.5438C26.5851 15.6882 26.8755 15.8999 27.1201 16.1668C27.3647 16.4337 27.5587 16.7505 27.6911 17.0992C27.8234 17.4479 27.8915 17.8216 27.8914 18.199V25.351C27.8913 25.7381 27.7503 26.1092 27.4995 26.3829C27.2486 26.6566 26.9084 26.8104 26.5536 26.8105H5.8589C5.50419 26.8102 5.16409 26.6564 4.91331 26.3827C4.66254 26.109 4.52161 25.738 4.52148 25.351V19.095C4.52173 18.0955 4.8858 17.137 5.53367 16.4302C6.18154 15.7235 7.06017 15.3263 7.9764 15.326" fill="#06D001"/>
<path d="M25.9215 15.6835H6.59633C5.85769 15.6835 5.25891 16.3367 5.25891 17.1425V24.09C5.25891 24.8958 5.85769 25.549 6.59633 25.549H25.9215C26.6601 25.549 27.2589 24.8958 27.2589 24.09V17.1425C27.2589 16.3367 26.6601 15.6835 25.9215 15.6835Z" fill="white"/>
<path d="M18.5634 10.3235H29.2829C29.6974 10.3235 30.095 10.5031 30.3881 10.8229C30.6812 11.1426 30.8458 11.5763 30.8458 12.0285V27.9715C30.8458 28.4237 30.6812 28.8574 30.3881 29.1771C30.095 29.4969 29.6974 29.6765 29.2829 29.6765H3.71709C3.30258 29.6765 2.90505 29.4969 2.61194 29.1771C2.31884 28.8574 2.15417 28.4237 2.15417 27.9715V12.0285C2.15417 11.5763 2.31884 11.1426 2.61194 10.8229C2.90505 10.5031 3.30258 10.3235 3.71709 10.3235H14.3898" stroke="#059212" stroke-linecap="round" stroke-linejoin="round"/>
<path d="M25.9215 15.6835H6.59633C5.85769 15.6835 5.25891 16.3367 5.25891 17.1425V24.09C5.25891 24.8958 5.85769 25.549 6.59633 25.549H25.9215C26.6601 25.549 27.2589 24.8958 27.2589 24.09V17.1425C27.2589 16.3367 26.6601 15.6835 25.9215 15.6835Z" stroke="#059212" stroke-linecap="round" stroke-linejoin="round"/>
<path d="M24.0148 19.0705H22.1815V22.5705H24.0148M22.1815 20.8205H23.5565M15.7648 22.5705L14.3898 19.0705L13.0148 22.5705M13.4732 21.7325H15.3065M8.88983 22.5705V19.0705L11.1815 22.5705V19.0705M20.3482 22.5705V19.0705L18.9732 22.0705L17.5982 19.0705V22.5705" stroke="#059212" stroke-linecap="round" stroke-linejoin="round"/>
<path d="M17.8498 5.1185H15.1507C14.7566 5.1185 14.4371 5.46705 14.4371 5.897V12.1765C14.4371 12.6065 14.7566 12.955 15.1507 12.955H17.8498C18.2439 12.955 18.5634 12.6065 18.5634 12.1765V5.897C18.5634 5.46705 18.2439 5.1185 17.8498 5.1185Z" stroke="#059212" stroke-miterlimit="10"/>
</svg>
