<svg width="35" height="35" viewBox="0 0 35 35" fill="none" xmlns="http://www.w3.org/2000/svg">
<path d="M14.5833 26.25C17.1719 26.2497 19.6859 25.3831 21.7248 23.7883L28.1356 30.1991L30.1977 28.137L23.7869 21.7262C25.3825 19.6871 26.2496 17.1725 26.25 14.5833C26.25 8.15058 21.016 2.91663 14.5833 2.91663C8.15061 2.91663 2.91666 8.15058 2.91666 14.5833C2.91666 21.016 8.15061 26.25 14.5833 26.25ZM14.5833 5.83329C19.4089 5.83329 23.3333 9.75767 23.3333 14.5833C23.3333 19.4089 19.4089 23.3333 14.5833 23.3333C9.7577 23.3333 5.83332 19.4089 5.83332 14.5833C5.83332 9.75767 9.7577 5.83329 14.5833 5.83329Z" fill="#059212"/>
<path d="M16.6425 12.5213C17.1952 13.0754 17.5 13.8075 17.5 14.5833H20.4167C20.4177 13.8169 20.267 13.0579 19.9731 12.35C19.6793 11.6422 19.2481 10.9995 18.7046 10.4592C16.4967 8.25417 12.6686 8.25417 10.4621 10.4592L12.5213 12.5242C13.6296 11.4188 15.54 11.4217 16.6425 12.5213Z" fill="#059212"/>
</svg>
