<svg width="30" height="30" viewBox="0 0 30 30" fill="none" xmlns="http://www.w3.org/2000/svg">
<path d="M17.3332 13.3266C17.3878 13.9961 17.2357 14.6662 16.8972 15.2465C16.5588 15.8268 16.0505 16.2892 15.4408 16.5713C14.8312 16.8534 14.1497 16.9416 13.4883 16.824C12.827 16.7064 12.2176 16.3886 11.7426 15.9136C11.2676 15.4386 10.9499 14.8293 10.8323 14.1679C10.7146 13.5066 10.8029 12.825 11.085 12.2154C11.3671 11.6058 11.8295 11.0974 12.4098 10.759C12.99 10.4206 13.6602 10.2684 14.3297 10.323C15.1051 10.3863 15.8329 10.7231 16.383 11.2732C16.9332 11.8234 17.2699 12.5511 17.3332 13.3266ZM25.3125 4.6875V25.3125C25.3125 25.8098 25.115 26.2867 24.7633 26.6383C24.4117 26.99 23.9348 27.1875 23.4375 27.1875H6.5625C6.06522 27.1875 5.58831 26.99 5.23667 26.6383C4.88504 26.2867 4.6875 25.8098 4.6875 25.3125V4.6875C4.6875 4.19022 4.88504 3.71331 5.23667 3.36167C5.58831 3.01004 6.06522 2.8125 6.5625 2.8125H23.4375C23.9348 2.8125 24.4117 3.01004 24.7633 3.36167C25.115 3.71331 25.3125 4.19022 25.3125 4.6875ZM22.0312 6.5625C22.0312 6.31386 21.9325 6.0754 21.7567 5.89959C21.5808 5.72377 21.3424 5.625 21.0938 5.625H17.8441C17.6018 5.62114 17.367 5.70935 17.1872 5.87181C17.0073 6.03427 16.8957 6.25891 16.875 6.50039C16.8665 6.62863 16.8844 6.75725 16.9277 6.87826C16.971 6.99927 17.0387 7.11009 17.1266 7.20383C17.2145 7.29757 17.3208 7.37224 17.4388 7.42319C17.5568 7.47414 17.684 7.50028 17.8125 7.5H18.8309L16.9828 9.34805C16.3499 8.91111 15.6273 8.62128 14.8679 8.49979C14.1085 8.37829 13.3316 8.42821 12.5939 8.64588C11.8563 8.86355 11.1767 9.24347 10.605 9.7578C10.0332 10.2721 9.58373 10.9078 9.28946 11.6184C8.9952 12.3289 8.86361 13.0963 8.90432 13.8643C8.94504 14.6322 9.15703 15.3814 9.52476 16.0568C9.8925 16.7323 10.4067 17.3169 11.0296 17.7679C11.6526 18.2189 12.3685 18.5248 13.125 18.6633V20.625H10.8129C10.5705 20.6211 10.3358 20.7093 10.1559 20.8718C9.97604 21.0343 9.86449 21.2589 9.84375 21.5004C9.83524 21.6286 9.85318 21.7572 9.89646 21.8783C9.93975 21.9993 10.0075 22.1101 10.0954 22.2038C10.1833 22.2976 10.2895 22.3722 10.4075 22.4232C10.5255 22.4741 10.6527 22.5003 10.7812 22.5H13.125V24.3434C13.122 24.5852 13.2106 24.8193 13.3729 24.9986C13.5353 25.1779 13.7594 25.2892 14.0004 25.3102C14.1286 25.3187 14.2572 25.3007 14.3783 25.2574C14.4993 25.2142 14.6101 25.1465 14.7038 25.0585C14.7976 24.9706 14.8722 24.8644 14.9232 24.7464C14.9741 24.6284 15.0003 24.5012 15 24.3727V22.5H17.3121C17.5541 22.5033 17.7883 22.4148 17.9676 22.2524C18.147 22.09 18.2582 21.8657 18.2789 21.6246C18.2874 21.4964 18.2695 21.3678 18.2262 21.2467C18.1829 21.1257 18.1152 21.0149 18.0273 20.9212C17.9394 20.8274 17.8331 20.7528 17.7151 20.7018C17.5971 20.6509 17.4699 20.6247 17.3414 20.625H15V18.6633C15.8449 18.5066 16.6372 18.1412 17.3049 17.6004C17.9726 17.0596 18.4946 16.3605 18.8234 15.5666C19.1522 14.7728 19.2775 13.9093 19.1877 13.0548C19.0979 12.2002 18.796 11.3816 18.3094 10.6734L20.1562 8.82539V9.81211C20.1527 10.0544 20.241 10.289 20.4034 10.4688C20.5658 10.6486 20.7903 10.7602 21.0316 10.7812C21.1599 10.7898 21.2885 10.7718 21.4095 10.7285C21.5305 10.6852 21.6413 10.6175 21.7351 10.5296C21.8288 10.4417 21.9035 10.3355 21.9544 10.2175C22.0054 10.0995 22.0315 9.97227 22.0312 9.84375V6.5625Z" fill="#059212"/>
</svg>
