<svg width="30" height="30" viewBox="0 0 30 30" fill="none" xmlns="http://www.w3.org/2000/svg">
<path opacity="0.16" d="M3.75 6.25L13.2325 15.7325C13.7013 16.2012 14.3371 16.4645 15 16.4645C15.6629 16.4645 16.2987 16.2012 16.7675 15.7325L26.25 6.25V21.25C26.25 21.913 25.9866 22.5489 25.5178 23.0178C25.0489 23.4866 24.413 23.75 23.75 23.75H6.25C5.58696 23.75 4.95107 23.4866 4.48223 23.0178C4.01339 22.5489 3.75 21.913 3.75 21.25V6.25Z" fill="#059212"/>
<path d="M3.75 6.25V5C3.41848 5 3.10054 5.1317 2.86612 5.36612C2.6317 5.60054 2.5 5.91848 2.5 6.25H3.75ZM26.25 6.25H27.5C27.5 5.91848 27.3683 5.60054 27.1339 5.36612C26.8995 5.1317 26.5815 5 26.25 5V6.25ZM3.75 7.5H26.25V5H3.75V7.5ZM25 6.25V21.25H27.5V6.25H25ZM23.75 22.5H6.25V25H23.75V22.5ZM5 21.25V6.25H2.5V21.25H5ZM6.25 22.5C5.91848 22.5 5.60054 22.3683 5.36612 22.1339C5.1317 21.8995 5 21.5815 5 21.25H2.5C2.5 22.2446 2.89509 23.1984 3.59835 23.9017C4.30161 24.6049 5.25544 25 6.25 25V22.5ZM25 21.25C25 21.5815 24.8683 21.8995 24.6339 22.1339C24.3995 22.3683 24.0815 22.5 23.75 22.5V25C24.7446 25 25.6984 24.6049 26.4017 23.9017C27.1049 23.1984 27.5 22.2446 27.5 21.25H25Z" fill="#059212"/>
<path d="M3.75 6.25L15 17.5L26.25 6.25" stroke="#059212" stroke-width="2" stroke-linecap="round" stroke-linejoin="round"/>
</svg>
