<svg width="43" height="43" viewBox="0 0 43 43" fill="none" xmlns="http://www.w3.org/2000/svg">
<path d="M41 21.5C41 10.7344 32.2656 2 21.5 2C10.7344 2 2 10.7344 2 21.5C2 32.2656 10.7344 41 21.5 41C32.2656 41 41 32.2656 41 21.5Z" stroke="#059212" stroke-width="3" stroke-miterlimit="10"/>
<path d="M17.8695 31.2656H17.8694C17.8145 31.2653 17.7601 31.2766 17.7098 31.2988C17.6595 31.3209 17.6145 31.3534 17.5776 31.3941C17.5408 31.4349 17.5129 31.4829 17.4959 31.5352L17.8695 31.2656ZM17.8695 31.2656H25.1231H25.1232M17.8695 31.2656H25.1232M25.1232 31.2656C25.1787 31.2652 25.2337 31.2766 25.2844 31.2991C25.3351 31.3216 25.3805 31.3547 25.4174 31.3961C25.4544 31.4375 25.4821 31.4863 25.4987 31.5392C25.5153 31.5921 25.5205 31.648 25.5139 31.703C25.3865 32.6311 24.907 33.3259 24.1981 33.7891C23.4887 34.2525 22.5489 34.4844 21.5014 34.4844C20.4425 34.4844 19.4934 34.2598 18.7809 33.7993C18.0689 33.3391 17.5925 32.6429 17.4788 31.6971L25.1232 31.2656ZM24.983 11.5136L24.9833 11.5137C26.0595 11.9417 27.2501 12.5957 28.1717 13.7612C29.0931 14.9265 29.7469 16.6046 29.7469 19.0828C29.7469 21.7919 30.0397 23.3549 30.541 24.4868C30.9537 25.4185 31.5076 26.0575 32.1527 26.8017C32.2912 26.9613 32.4338 27.1258 32.5801 27.2991C32.9175 27.6996 32.9327 28.2768 32.714 28.7554C32.4955 29.2336 32.0449 29.6099 31.4545 29.6104H11.5472C10.9533 29.6104 10.5022 29.2343 10.2844 28.7563C10.0665 28.2779 10.0837 27.7007 10.4227 27.3002L10.4227 27.3002C10.5693 27.1266 10.7121 26.9618 10.8508 26.8018C11.4956 26.058 12.0495 25.4192 12.4622 24.4878C12.9639 23.3559 13.2569 21.7929 13.2569 19.0838C13.2569 16.6051 13.9101 14.9275 14.8313 13.7626C15.7527 12.5975 16.9432 11.9438 18.0205 11.5147L18.0207 11.5146C18.1714 11.4518 18.3071 11.3582 18.4194 11.2398C18.5316 11.1213 18.6178 10.9807 18.6724 10.8269L18.6724 10.827L18.6726 10.8262C19.046 9.58565 20.1005 8.51562 21.5014 8.51562C22.9023 8.51562 23.9548 9.58564 24.3302 10.8252L24.3302 10.8252L24.3304 10.826C24.3854 10.9797 24.4718 11.1202 24.5842 11.2386C24.6966 11.357 24.8324 11.4506 24.983 11.5136ZM25.1231 31.25H17.8695L25.5136 31.5345C25.4963 31.4795 25.4675 31.4287 25.4291 31.3857C25.3906 31.3426 25.3435 31.3083 25.2907 31.2849C25.238 31.2615 25.1808 31.2496 25.1231 31.25Z" fill="#059212" stroke="#059212" stroke-width="0.03125"/>
</svg>
