<svg width="192" height="192" viewBox="0 0 192 192" fill="none" xmlns="http://www.w3.org/2000/svg">
<path opacity="0.2" fill-rule="evenodd" clip-rule="evenodd" d="M97.8823 192C149.865 192 192 149.332 192 96.691C192 44.0499 149.865 1.38197 97.8823 1.38197C45.8993 1.38197 3.76465 44.0499 3.76465 96.691C3.76465 149.332 45.8993 192 97.8823 192ZM97.8823 176.751C141.545 176.751 176.941 140.907 176.941 96.691C176.941 52.4752 141.545 16.6314 97.8823 16.6314C54.2193 16.6314 18.8235 52.4752 18.8235 96.691C18.8235 140.907 54.2193 176.751 97.8823 176.751Z" fill="#059212"/>
<path opacity="0.2" d="M73.9256 76.3425L77.0127 66.6744C78.2353 62.839 80.6269 59.4948 83.8439 57.122C87.0609 54.7493 90.9378 53.4701 94.9176 53.4684H116.738C120.719 53.4685 124.598 54.7469 127.816 57.1198C131.035 59.4927 133.427 62.8378 134.65 66.6744L137.737 76.3425H147.247C152.239 76.3425 157.027 78.3508 160.557 81.9256C164.087 85.5004 166.071 90.3488 166.071 95.4043V141.153C166.071 146.208 164.087 151.057 160.557 154.631C157.027 158.206 152.239 160.214 147.247 160.214H64.4235C59.4312 160.214 54.6434 158.206 51.1133 154.631C47.5832 151.057 45.6 146.208 45.6 141.153V95.4043C45.6 90.3488 47.5832 85.5004 51.1133 81.9256C54.6434 78.3508 59.4312 76.3425 64.4235 76.3425H73.9256Z" fill="#059212"/>
<path fill-rule="evenodd" clip-rule="evenodd" d="M65.295 56.524L62.208 66.1921H52.7059C47.7135 66.1921 42.9257 68.2004 39.3956 71.7752C35.8655 75.35 33.8823 80.1984 33.8823 85.2539V131.002C33.8823 133.505 34.3692 135.984 35.3152 138.297C36.2611 140.61 37.6477 142.711 39.3956 144.481C41.1435 146.251 43.2186 147.655 45.5024 148.613C47.7862 149.571 50.2339 150.064 52.7059 150.064H135.529C138.001 150.064 140.449 149.571 142.733 148.613C145.017 147.655 147.092 146.251 148.84 144.481C150.588 142.711 151.974 140.61 152.92 138.297C153.866 135.984 154.353 133.505 154.353 131.002V85.2539C154.353 80.1984 152.37 75.35 148.84 71.7752C145.31 68.2004 140.522 66.1921 135.529 66.1921H126.02L122.94 56.524C121.717 52.6862 119.323 49.3401 116.103 46.9672C112.883 44.5942 109.003 43.3165 105.02 43.318H83.2075C79.2251 43.3165 75.3448 44.5942 72.1248 46.9672C68.9048 49.3401 66.5109 52.6862 65.2875 56.524M52.7059 73.8168H67.6894L72.4555 58.8724C73.1885 56.5686 74.6244 54.5596 76.5565 53.1347C78.4886 51.7097 80.8173 50.9422 83.2075 50.9427H105.028C107.417 50.9439 109.744 51.7121 111.674 53.1369C113.605 54.5617 115.04 56.5698 115.772 58.8724L120.538 73.8168H135.529C138.525 73.8168 141.397 75.0218 143.516 77.1667C145.634 79.3116 146.824 82.2206 146.824 85.2539V131.002C146.824 134.036 145.634 136.945 143.516 139.089C141.397 141.234 138.525 142.439 135.529 142.439H52.7059C49.7105 142.439 46.8378 141.234 44.7197 139.089C42.6016 136.945 41.4117 134.036 41.4117 131.002V85.2539C41.4117 82.2206 42.6016 79.3116 44.7197 77.1667C46.8378 75.0218 49.7105 73.8168 52.7059 73.8168Z" fill="#059212"/>
<rect width="20.6582" height="22.8" rx="10" transform="matrix(0 -1 -1 0 153.6 89.9241)" fill="#C5E1C8"/>
<rect width="14.5823" height="10.8" rx="5.4" transform="matrix(0 -1 -1 0 146.4 81.4177)" fill="#CDE9D0"/>
<rect width="14.5823" height="16.8" rx="7.29114" transform="matrix(0 -1 -1 0 150 82.6329)" fill="#C5E1C8"/>
<path fill-rule="evenodd" clip-rule="evenodd" d="M71.5293 104.316C71.5293 110.382 73.9091 116.2 78.1452 120.49C82.3814 124.78 88.1268 127.19 94.1175 127.19C100.108 127.19 105.854 124.78 110.09 120.49C114.326 116.2 116.706 110.382 116.706 104.316C116.706 98.2491 114.326 92.431 110.09 88.1413C105.854 83.8515 100.108 81.4416 94.1175 81.4416C88.1268 81.4416 82.3814 83.8515 78.1452 88.1413C73.9091 92.431 71.5293 98.2491 71.5293 104.316ZM109.176 104.316C109.176 108.36 107.59 112.239 104.766 115.099C101.942 117.959 98.1114 119.565 94.1175 119.565C90.1237 119.565 86.2934 117.959 83.4693 115.099C80.6453 112.239 79.0587 108.36 79.0587 104.316C79.0587 100.271 80.6453 96.3926 83.4693 93.5328C86.2934 90.6729 90.1237 89.0663 94.1175 89.0663C98.1114 89.0663 101.942 90.6729 104.766 93.5328C107.59 96.3926 109.176 100.271 109.176 104.316Z" fill="#059212"/>
<path fill-rule="evenodd" clip-rule="evenodd" d="M94.1177 182.993C141.937 182.993 180.706 143.734 180.706 95.309C180.706 46.8844 141.937 7.62472 94.1177 7.62472C46.2984 7.62472 7.52941 46.8844 7.52941 95.309C7.52941 143.734 46.2984 182.993 94.1177 182.993ZM94.1177 190.618C146.101 190.618 188.235 147.95 188.235 95.309C188.235 42.6679 146.101 0 94.1177 0C42.1346 0 0 42.6679 0 95.309C0 147.95 42.1346 190.618 94.1177 190.618Z" fill="#059212"/>
<path d="M165.6 63.8843H150.686V78.9874H145.714V63.8843H130.8V58.8499H145.714V43.7468H150.686V58.8499H165.6V63.8843Z" fill="#059212"/>
</svg>
