<svg width="40" height="37" viewBox="0 0 40 37" fill="none" xmlns="http://www.w3.org/2000/svg">
<path d="M10.6667 16.1875H18.6667V37H10.6667V16.1875ZM13.3333 34.6875H16V18.5H13.3333V34.6875ZM21.3333 20.8125H29.3333V37H21.3333V20.8125ZM24 34.6875H26.6667V23.125H24V34.6875ZM0 25.4375H8V37H0V25.4375ZM2.66667 34.6875H5.33333V27.75H2.66667V34.6875ZM32 11.5625H40V37H32V11.5625ZM34.6667 34.6875H37.3333V13.875H34.6667V34.6875ZM28.9375 11.2192C29.2014 11.7131 29.3333 12.2129 29.3333 12.7188C29.3333 13.2005 29.2292 13.6522 29.0208 14.0737C28.8125 14.4953 28.5278 14.8626 28.1667 15.1758C27.8056 15.4889 27.3819 15.7358 26.8958 15.9165C26.4097 16.0972 25.8889 16.1875 25.3333 16.1875C24.7778 16.1875 24.2569 16.0972 23.7708 15.9165C23.2847 15.7358 22.8611 15.4889 22.5 15.1758C22.1389 14.8626 21.8542 14.4953 21.6458 14.0737C21.4375 13.6522 21.3333 13.2005 21.3333 12.7188V12.502C21.3333 12.4297 21.3403 12.3574 21.3542 12.2852L17.4375 10.5869C17.0764 10.9001 16.6528 11.141 16.1667 11.3096C15.6806 11.4782 15.1806 11.5625 14.6667 11.5625C14.0833 11.5625 13.5069 11.4481 12.9375 11.2192L7.60417 15.8442C7.86806 16.3381 8 16.8379 8 17.3438C8 17.8255 7.89583 18.2772 7.6875 18.6987C7.47917 19.1203 7.19444 19.4876 6.83333 19.8008C6.47222 20.1139 6.04861 20.3608 5.5625 20.5415C5.07639 20.7222 4.55556 20.8125 4 20.8125C3.44444 20.8125 2.92361 20.7222 2.4375 20.5415C1.95139 20.3608 1.52778 20.1139 1.16667 19.8008C0.805556 19.4876 0.520833 19.1203 0.3125 18.6987C0.104167 18.2772 0 17.8255 0 17.3438C0 16.862 0.104167 16.4103 0.3125 15.9888C0.520833 15.5672 0.805556 15.1999 1.16667 14.8867C1.52778 14.5736 1.95139 14.3267 2.4375 14.146C2.92361 13.9653 3.44444 13.875 4 13.875C4.58333 13.875 5.15972 13.9894 5.72917 14.2183L11.0625 9.59326C10.7986 9.09945 10.6667 8.59961 10.6667 8.09375C10.6667 7.61198 10.7708 7.16032 10.9792 6.73877C11.1875 6.31722 11.4722 5.94987 11.8333 5.63672C12.1944 5.32357 12.6181 5.07666 13.1042 4.896C13.5903 4.71533 14.1111 4.625 14.6667 4.625C15.2222 4.625 15.7431 4.71533 16.2292 4.896C16.7153 5.07666 17.1389 5.32357 17.5 5.63672C17.8611 5.94987 18.1458 6.31722 18.3542 6.73877C18.5625 7.16032 18.6667 7.61198 18.6667 8.09375V8.31055C18.6667 8.38281 18.6597 8.45508 18.6458 8.52734L22.5625 10.2256C22.9236 9.91243 23.3472 9.67155 23.8333 9.50293C24.3194 9.33431 24.8194 9.25 25.3333 9.25C25.9167 9.25 26.4931 9.36442 27.0625 9.59326L32.3958 4.96826C32.1319 4.47445 32 3.97461 32 3.46875C32 2.98698 32.1042 2.53532 32.3125 2.11377C32.5208 1.69222 32.8056 1.32487 33.1667 1.01172C33.5278 0.698568 33.9514 0.45166 34.4375 0.270996C34.9236 0.090332 35.4444 0 36 0C36.5556 0 37.0764 0.090332 37.5625 0.270996C38.0486 0.45166 38.4722 0.698568 38.8333 1.01172C39.1944 1.32487 39.4792 1.69222 39.6875 2.11377C39.8958 2.53532 40 2.98698 40 3.46875C40 3.95052 39.8958 4.40218 39.6875 4.82373C39.4792 5.24528 39.1944 5.61263 38.8333 5.92578C38.4722 6.23893 38.0486 6.48584 37.5625 6.6665C37.0764 6.84717 36.5556 6.9375 36 6.9375C35.4167 6.9375 34.8403 6.82308 34.2708 6.59424L28.9375 11.2192ZM4 18.5C4.36111 18.5 4.67361 18.3856 4.9375 18.1567C5.20139 17.9279 5.33333 17.6569 5.33333 17.3438C5.33333 17.0306 5.20139 16.7596 4.9375 16.5308C4.67361 16.3019 4.36111 16.1875 4 16.1875C3.63889 16.1875 3.32639 16.3019 3.0625 16.5308C2.79861 16.7596 2.66667 17.0306 2.66667 17.3438C2.66667 17.6569 2.79861 17.9279 3.0625 18.1567C3.32639 18.3856 3.63889 18.5 4 18.5ZM36 2.3125C35.6389 2.3125 35.3264 2.42692 35.0625 2.65576C34.7986 2.8846 34.6667 3.1556 34.6667 3.46875C34.6667 3.7819 34.7986 4.0529 35.0625 4.28174C35.3264 4.51058 35.6389 4.625 36 4.625C36.3611 4.625 36.6736 4.51058 36.9375 4.28174C37.2014 4.0529 37.3333 3.7819 37.3333 3.46875C37.3333 3.1556 37.2014 2.8846 36.9375 2.65576C36.6736 2.42692 36.3611 2.3125 36 2.3125ZM14.6667 9.25C15.0278 9.25 15.3403 9.13558 15.6042 8.90674C15.8681 8.6779 16 8.4069 16 8.09375C16 7.7806 15.8681 7.5096 15.6042 7.28076C15.3403 7.05192 15.0278 6.9375 14.6667 6.9375C14.3056 6.9375 13.9931 7.05192 13.7292 7.28076C13.4653 7.5096 13.3333 7.7806 13.3333 8.09375C13.3333 8.4069 13.4653 8.6779 13.7292 8.90674C13.9931 9.13558 14.3056 9.25 14.6667 9.25ZM25.3333 13.875C25.6944 13.875 26.0069 13.7606 26.2708 13.5317C26.5347 13.3029 26.6667 13.0319 26.6667 12.7188C26.6667 12.4056 26.5347 12.1346 26.2708 11.9058C26.0069 11.6769 25.6944 11.5625 25.3333 11.5625C24.9722 11.5625 24.6597 11.6769 24.3958 11.9058C24.1319 12.1346 24 12.4056 24 12.7188C24 13.0319 24.1319 13.3029 24.3958 13.5317C24.6597 13.7606 24.9722 13.875 25.3333 13.875Z" fill="#059212"/>
</svg>
