<svg width="41" height="32" viewBox="0 0 41 32" fill="none" xmlns="http://www.w3.org/2000/svg">
<path d="M24.4 1C31.7535 1 35.4311 1 37.7146 3.19706C39.998 5.39412 40 8.92882 40 16C40 23.0712 40 26.6059 37.7146 28.8029C35.4292 31 31.7535 31 24.4 31H16.6C9.24655 31 5.56885 31 3.2854 28.8029C1.00195 26.6059 1 23.0712 1 16C1 8.92882 1 5.39412 3.2854 3.19706C5.5708 1 9.24655 1 16.6 1H24.4Z" stroke="#059212" stroke-width="2" stroke-linecap="round" stroke-linejoin="round"/>
<path d="M6.84998 22.1764C9.98753 18.4053 17.2903 18.1988 20.5 22.1764M26.35 11.5882H34.15M26.35 18.647H30.25M17.0855 12.9117C17.0855 13.7308 16.726 14.5163 16.086 15.0954C15.4461 15.6746 14.5781 16 13.673 16C12.768 16 11.9 15.6746 11.26 15.0954C10.6201 14.5163 10.2605 13.7308 10.2605 12.9117C10.2605 12.0927 10.6201 11.3072 11.26 10.728C11.9 10.1489 12.768 9.82349 13.673 9.82349C14.5781 9.82349 15.4461 10.1489 16.086 10.728C16.726 11.3072 17.0855 12.0927 17.0855 12.9117Z" stroke="#059212" stroke-width="2" stroke-linecap="round" stroke-linejoin="round"/>
</svg>
