<svg width="157" height="157" viewBox="0 0 157 157" fill="none" xmlns="http://www.w3.org/2000/svg">
<path fill-rule="evenodd" clip-rule="evenodd" d="M78.4314 156.863C121.751 156.863 156.863 121.751 156.863 78.4314C156.863 35.1122 121.751 0 78.4314 0C35.1122 0 0 35.1122 0 78.4314C0 121.751 35.1122 156.863 78.4314 156.863ZM78.4314 150.588C118.281 150.588 150.588 118.281 150.588 78.4314C150.588 38.582 118.281 6.27451 78.4314 6.27451C38.582 6.27451 6.27451 38.582 6.27451 78.4314C6.27451 118.281 38.582 150.588 78.4314 150.588Z" fill="#059212"/>
<path d="M51.4615 43.5349C51.4615 37.5583 54.3102 31.8264 59.3809 27.6003C64.4516 23.3742 71.329 21 78.5 21C85.671 21 92.5484 23.3742 97.6191 27.6003C102.69 31.8264 105.538 37.5583 105.538 43.5349C105.538 49.5115 102.69 55.2433 97.6191 59.4695C92.5484 63.6956 85.671 66.0698 78.5 66.0698C71.329 66.0698 64.4516 63.6956 59.3809 59.4695C54.3102 55.2433 51.4615 49.5115 51.4615 43.5349ZM23 119.442C23 93.8944 47.8469 73.186 78.5 73.186C109.153 73.186 134 93.8944 134 119.442C134 120.386 133.55 121.291 132.75 121.958C131.949 122.625 130.863 123 129.731 123H27.2692C26.137 123 25.0511 122.625 24.2504 121.958C23.4498 121.291 23 120.386 23 119.442Z" fill="black"/>
</svg>
