<svg width="43" height="37" viewBox="0 0 43 37" fill="none" xmlns="http://www.w3.org/2000/svg">
<path d="M25.2551 10.1125L38.0858 10.2243C38.8542 10.3064 39.569 10.6119 40.1162 11.0919C40.6634 11.572 41.0115 12.1991 41.1048 12.8729V33.2213C41.0969 33.9263 40.774 34.6004 40.2056 35.0989C39.6372 35.5974 38.8686 35.8806 38.0648 35.8876H8.14216C7.7563 35.8906 7.37354 35.8269 7.01576 35.7002C6.65797 35.5734 6.33218 35.3861 6.05699 35.1488C5.7818 34.9116 5.56261 34.6291 5.41195 34.3176C5.26129 34.006 5.18212 33.6715 5.17896 33.333V33.2841L5.22001 21.8881C6.89056 23.2147 8.89586 22.4687 9.05902 25.6437V28.6487H20.2192L20.2297 21.8834C22.4063 20.5504 23.9823 18.5914 24.6845 16.346C25.214 14.2614 24.0382 10.1218 25.2551 10.1125Z" stroke="#059212" stroke-width="2" stroke-linecap="round" stroke-linejoin="round"/>
<path d="M30.5888 12.621H28.652C28.6055 12.621 28.5677 12.654 28.5677 12.6948V14.3935C28.5677 14.4343 28.6055 14.4674 28.652 14.4674H30.5888C30.6353 14.4674 30.673 14.4343 30.673 14.3935V12.6948C30.673 12.654 30.6353 12.621 30.5888 12.621Z" stroke="#059212" stroke-width="2" stroke-linecap="round" stroke-linejoin="round"/>
<path d="M37.05 12.6791H35.1132C35.0667 12.6791 35.029 12.7121 35.029 12.7529V14.4516C35.029 14.4924 35.0667 14.5255 35.1132 14.5255H37.05C37.0966 14.5255 37.1343 14.4924 37.1343 14.4516V12.7529C37.1343 12.7121 37.0966 12.6791 37.05 12.6791Z" stroke="#059212" stroke-width="2" stroke-linecap="round" stroke-linejoin="round"/>
<path d="M37.05 31.5911H35.1132C35.0667 31.5911 35.029 31.6241 35.029 31.6649V33.3636C35.029 33.4044 35.0667 33.4375 35.1132 33.4375H37.05C37.0966 33.4375 37.1343 33.4044 37.1343 33.3636V31.6649C37.1343 31.6241 37.0966 31.5911 37.05 31.5911Z" stroke="#059212" stroke-width="2" stroke-linecap="round" stroke-linejoin="round"/>
<path d="M30.3394 31.6039H28.4025C28.356 31.6039 28.3183 31.637 28.3183 31.6777V33.3764C28.3183 33.4172 28.356 33.4503 28.4025 33.4503H30.3394C30.3859 33.4503 30.4236 33.4172 30.4236 33.3764V31.6777C30.4236 31.637 30.3859 31.6039 30.3394 31.6039Z" stroke="#059212" stroke-width="2" stroke-linecap="round" stroke-linejoin="round"/>
<path d="M24.1888 31.6575H22.2519C22.2054 31.6575 22.1677 31.6905 22.1677 31.7313V33.43C22.1677 33.4708 22.2054 33.5039 22.2519 33.5039H24.1888C24.2353 33.5039 24.273 33.4708 24.273 33.43V31.7313C24.273 31.6905 24.2353 31.6575 24.1888 31.6575Z" stroke="#059212" stroke-width="2" stroke-linecap="round" stroke-linejoin="round"/>
<path d="M17.636 31.5282H15.6991C15.6526 31.5282 15.6149 31.5613 15.6149 31.6021V33.3008C15.6149 33.3415 15.6526 33.3746 15.6991 33.3746H17.636C17.6825 33.3746 17.7202 33.3415 17.7202 33.3008V31.6021C17.7202 31.5613 17.6825 31.5282 17.636 31.5282Z" stroke="#059212" stroke-width="2" stroke-linecap="round" stroke-linejoin="round"/>
<path d="M11.1138 31.5457H9.17689C9.13038 31.5457 9.09268 31.5787 9.09268 31.6195V33.3182C9.09268 33.359 9.13038 33.3921 9.17689 33.3921H11.1138C11.1603 33.3921 11.198 33.359 11.198 33.3182V31.6195C11.198 31.5787 11.1603 31.5457 11.1138 31.5457Z" stroke="#059212" stroke-width="2" stroke-linecap="round" stroke-linejoin="round"/>
<path d="M3.26945 5.15219C3.34629 4.88446 4.24209 4.04896 4.58315 4.05727C5.4496 4.22218 6.32954 4.32683 7.21478 4.37024C7.55689 4.21329 7.36846 2.65584 7.68426 2.52105C8.00426 2.23578 9.44534 1.74464 9.61376 1.92743C10.1843 2.40104 11.0643 3.4101 11.5233 3.4101C11.9706 3.39718 13.0559 1.93297 13.5591 2.00775C14.1421 2.05337 14.7043 2.22016 15.1991 2.49428C15.5044 2.7537 15.1781 4.38778 15.6475 4.52626C16.197 4.67397 18.4476 3.95941 18.5897 4.11082C18.7939 4.28992 19.6234 4.99063 19.6129 5.23713C19.6129 5.61564 18.7223 7.11124 19.1192 7.23679C19.2413 7.52668 21.0034 7.97351 21.4003 8.21539C21.7571 8.48312 22.2561 9.0629 22.0982 9.46911C22.0666 9.95656 20.4234 11.0367 20.4939 11.4208C20.5603 11.8141 21.8634 12.7336 21.8687 13.0327C21.874 13.2783 21.8077 14.3187 21.4866 14.4175C21.115 14.6852 18.9718 14.8994 18.9866 15.1939C18.8802 15.5069 19.7918 16.6101 19.5824 17.0339C19.4508 17.4133 18.9823 18.3873 18.615 18.4454C18.2034 18.547 16.4823 18.1279 16.2076 18.2931C15.7233 18.5304 15.4128 20.182 15.1991 20.2411C14.804 20.4641 14.3309 20.5558 13.8654 20.4996C13.5391 20.4682 12.1749 19.2043 11.5391 19.2219C11.218 19.28 10.1643 20.4867 9.78745 20.446C9.45068 20.4939 9.10639 20.4823 8.77484 20.4117C8.44329 20.3412 8.13118 20.2131 7.85689 20.0352C7.48004 19.7675 7.74531 18.3781 7.24635 18.0115C6.78845 17.7263 5.20948 18.6107 4.81789 18.3688C4.10525 18.1325 3.38629 17.7438 3.41261 17.369C3.39155 17.0117 4.1863 15.4487 3.81998 15.1625C3.43787 14.8597 1.78837 14.9714 1.71679 14.6492C1.44214 14.0806 1.23746 13.488 1.10625 12.8813C1.0452 12.4658 2.96944 11.6931 2.9747 11.3404C2.95891 10.997 1.2431 10.1172 1.22309 9.75161C1.17947 9.22828 1.30073 8.70451 1.57363 8.23755C1.86837 7.88858 3.49366 7.93751 3.85472 7.62546C4.0842 7.41959 3.00418 5.43746 3.26945 5.15589V5.15219Z" stroke="#059212" stroke-width="2" stroke-linecap="round" stroke-linejoin="round"/>
<path d="M5.8716 11.8676C5.7537 11.6664 5.68212 8.72411 6.39582 8.73796C6.75388 8.76889 7.09704 8.8794 7.39285 9.05904C7.68867 9.23867 7.92736 9.4815 8.08637 9.76456C8.22295 10.4874 8.11499 11.2294 7.77584 11.899C7.6985 12.067 7.56483 12.2104 7.39252 12.3103C7.22022 12.4102 7.01739 12.4619 6.81087 12.4585C6.60436 12.4551 6.40389 12.3968 6.23598 12.2913C6.06807 12.1858 5.94064 12.038 5.87055 11.8676M9.32324 6.44194C10.4251 6.1557 11.5817 6.06777 12.7233 6.18344C13.0444 6.37086 12.2812 7.99662 11.9085 8.23758C11.578 8.5367 9.90851 8.17111 9.59692 8.01047C8.09058 7.25067 8.96639 6.77337 9.32324 6.44194ZM15.6612 7.50086C16.9644 8.54501 17.9276 10.4256 17.5455 10.5991C15.4781 11.1808 14.7244 9.93905 14.3938 8.52285C14.317 7.94215 15.4475 7.32637 15.6676 7.49624L15.6612 7.50086ZM16.537 14.1046C15.8088 14.9398 14.8622 15.6092 13.777 16.0562C13.6017 15.7648 13.5038 15.4423 13.4905 15.113C13.4772 14.7837 13.5488 14.456 13.7002 14.1544C13.93 13.8359 14.2315 13.562 14.5863 13.3492C14.941 13.1365 15.3416 12.9895 15.7633 12.9173C16.6086 12.7161 17.1171 13.4666 16.537 14.1046ZM9.93377 16.3821C9.18955 16.3867 7.06635 15.145 7.26531 14.8819C7.44626 14.5863 7.72245 14.3441 8.05941 14.1853C8.39637 14.0265 8.77919 13.9583 9.16007 13.9892C9.54704 14.0395 9.91752 14.1609 10.2473 14.3454C10.5771 14.53 10.8587 14.7735 11.0738 15.0601C11.7054 15.7082 10.9717 16.3775 9.93377 16.3821Z" stroke="#059212" stroke-width="2" stroke-linecap="round" stroke-linejoin="round"/>
<path d="M11.5433 12.3948C12.238 12.3948 12.8012 11.9009 12.8012 11.2916C12.8012 10.6823 12.238 10.1884 11.5433 10.1884C10.8485 10.1884 10.2853 10.6823 10.2853 11.2916C10.2853 11.9009 10.8485 12.3948 11.5433 12.3948Z" stroke="#059212" stroke-width="2" stroke-linecap="round" stroke-linejoin="round"/>
<path d="M27.2099 16.7754H35.591C35.9671 16.7475 36.3406 16.8504 36.631 17.0617C36.9214 17.2731 37.1056 17.5761 37.1437 17.9054V27.6535C37.1053 27.9828 36.9209 28.2857 36.6303 28.4969C36.3397 28.7081 35.9661 28.8107 35.59 28.7826H27.2099C26.834 28.8104 26.4606 28.7077 26.1702 28.4966C25.8798 28.2854 25.6956 27.9826 25.6572 27.6535V17.9044C25.6956 17.5753 25.8798 17.2726 26.1702 17.0614C26.4606 16.8502 26.834 16.7475 27.2099 16.7754Z" stroke="#059212" stroke-width="2" stroke-linecap="round" stroke-linejoin="round"/>
</svg>
