<svg width="30" height="18" viewBox="0 0 30 18" fill="none" xmlns="http://www.w3.org/2000/svg">
<path d="M29.8621 8.42586C29.8183 8.33977 28.7638 6.28598 26.4036 4.2118C24.2173 2.29055 20.4571 0 14.9528 0C9.44851 0 5.68832 2.29055 3.50207 4.2118C1.1418 6.28598 0.0873432 8.33977 0.043515 8.42586C0.0148114 8.48395 0 8.54661 0 8.60994C0 8.67327 0.0148114 8.73593 0.043515 8.79402C0.0873432 8.88125 1.1418 10.9339 3.50207 13.0081C5.69348 14.9339 9.4498 17.2188 14.9528 17.2188C20.4558 17.2188 24.2173 14.9293 26.4036 13.0081C28.7638 10.9339 29.8183 8.88125 29.8621 8.79402C29.8908 8.73593 29.9056 8.67327 29.9056 8.60994C29.9056 8.54661 29.8908 8.48395 29.8621 8.42586ZM25.6469 12.3907C22.673 14.9962 19.0727 16.3125 14.9477 16.3125C10.8227 16.3125 7.22746 14.9928 4.24844 12.3907C2.98087 11.2798 1.91487 10.0045 1.08766 8.60938C1.91644 7.21392 2.9842 5.93861 4.25359 4.82805C7.23262 2.22598 10.8278 0.90625 14.9528 0.90625C19.0778 0.90625 22.673 2.22598 25.652 4.82805C26.9213 5.93873 27.989 7.21402 28.818 8.60938C27.9892 10.0048 26.9214 11.2801 25.652 12.3907H25.6469ZM14.9528 3.625C13.831 3.625 12.7344 3.91733 11.8017 4.46502C10.869 5.01271 10.142 5.79116 9.71268 6.70194C9.28339 7.61271 9.17107 8.6149 9.38992 9.58178C9.60877 10.5487 10.149 11.4368 10.9422 12.1339C11.7354 12.8309 12.746 13.3057 13.8463 13.498C14.9465 13.6903 16.0869 13.5916 17.1233 13.2143C18.1597 12.8371 19.0456 12.1982 19.6688 11.3785C20.292 10.5589 20.6247 9.59519 20.6247 8.60938C20.623 7.2879 20.0249 6.02097 18.9615 5.08654C17.8982 4.15212 16.4566 3.6265 14.9528 3.625ZM14.9528 12.6875C14.035 12.6875 13.1378 12.4483 12.3746 12.0002C11.6115 11.5521 11.0167 10.9152 10.6654 10.17C10.3142 9.42482 10.2223 8.60485 10.4014 7.81377C10.5804 7.02269 11.0224 6.29604 11.6714 5.72571C12.3204 5.15537 13.1473 4.76696 14.0475 4.60961C14.9477 4.45225 15.8807 4.53301 16.7287 4.84168C17.5767 5.15034 18.3014 5.67305 18.8114 6.34369C19.3213 7.01433 19.5934 7.8028 19.5934 8.60938C19.5934 9.69096 19.1045 10.7282 18.2342 11.493C17.3639 12.2578 16.1836 12.6875 14.9528 12.6875Z" fill="black"/>
</svg>
