<svg width="197" height="64" viewBox="0 0 197 64" fill="none" xmlns="http://www.w3.org/2000/svg">
<path d="M124.648 46.0799H21.9435C24.2953 43.5743 26.753 40.9247 29.1225 38.2207C38.0242 39.3567 49.1895 35.6415 62.3657 27.1519C64.5235 31.1519 69.7328 38.2975 79.4635 38.3999H79.6693C84.7904 38.3999 90.0409 36.3999 95.6383 32.3007C98.29 34.9247 105.428 38.3999 124.648 38.3999C125.272 38.3999 125.87 38.265 126.311 38.025C126.752 37.7849 127 37.4594 127 37.1199C127 36.7804 126.752 36.4548 126.311 36.2148C125.87 35.9747 125.272 35.8399 124.648 35.8399C99.4365 35.8399 98.778 29.6831 98.778 29.4399C98.7772 29.1643 98.613 28.8961 98.3098 28.6753C98.0065 28.4546 97.5804 28.293 97.0949 28.2146C96.6093 28.1362 96.0903 28.1452 95.6149 28.2403C95.1395 28.3354 94.7332 28.5115 94.4565 28.7423C87.4539 34.5919 82.5621 35.8399 79.6575 35.8399H79.5517C71.9082 35.7599 67.0341 27.3535 65.8052 24.1247C65.7115 23.8897 65.4979 23.6738 65.189 23.5017C64.8802 23.3297 64.4885 23.2085 64.0589 23.1521C63.6293 23.0956 63.1792 23.1062 62.7601 23.1826C62.341 23.259 61.97 23.3981 61.6895 23.5839C49.3777 31.9903 38.7238 36.2399 31.2332 35.8079C45.456 19.0399 50.0891 8.05117 44.9738 3.12639C43.5098 1.69919 40.3936 0 34.0496 0C25.924 0 19.133 4.61119 15.8757 12.3328C13.8361 17.2118 13.5288 22.2581 14.9703 27.1999C16.5225 32.0927 19.9033 35.5359 24.7833 37.2319C22.0905 40.3039 19.3153 43.3119 16.646 46.0895H2.35269C1.72895 46.0895 1.13075 46.2243 0.689694 46.4644C0.24864 46.7044 0.000857073 47.03 0.000857073 47.3694C0.000857073 47.7089 0.24864 48.0345 0.689694 48.2745C1.13075 48.5146 1.72895 48.6494 2.35269 48.6494H14.1707C6.60364 56.3838 0.430067 61.987 0.335994 62.0702C0.176855 62.2143 0.0714524 62.3741 0.0258081 62.5404C-0.0198363 62.7067 -0.00482746 62.8763 0.0699761 63.0394C0.14478 63.2026 0.277912 63.3561 0.461768 63.4912C0.645623 63.6264 0.876599 63.7405 1.1415 63.827C1.50831 63.9442 1.92743 64.004 2.35269 63.9998C2.75871 63.9999 3.15784 63.9427 3.51125 63.8339C3.86466 63.7251 4.16029 63.5684 4.36939 63.379C4.46347 63.2926 11.3367 57.059 19.4917 48.6398H124.648C125.272 48.6398 125.87 48.505 126.311 48.2649C126.752 48.0249 127 47.6993 127 47.3598C127 47.0204 126.752 46.6948 126.311 46.4548C125.87 46.2147 125.272 46.0799 124.648 46.0799ZM19.6034 26.7551C18.2777 22.1491 18.575 17.4479 20.4795 12.9024C22.5785 7.90397 27.2469 2.55999 34.0496 2.55999C38.471 2.55999 40.0644 3.60319 40.8758 4.38399C46.4496 9.72797 35.2314 24.9599 26.8118 34.8799C23.3781 33.5007 20.8499 30.6655 19.6034 26.7551Z" fill="black"/>
<path d="M193.591 13.1815C191.941 11.7846 189.704 11 187.372 11C185.039 11 182.802 11.7846 181.152 13.1815L151.77 38.0836C150.771 38.9295 150.069 39.9941 149.742 41.1586L147.05 50.744C146.977 51.0037 146.984 51.2749 147.07 51.5317C147.156 51.7885 147.318 52.0224 147.541 52.211C147.764 52.3997 148.04 52.5368 148.343 52.6093C148.646 52.6818 148.966 52.6873 149.272 52.6252L160.583 50.3419C161.958 50.0654 163.215 49.4703 164.214 48.6232L188.793 27.7919C189.594 28.4769 190.042 29.403 190.039 30.3674C190.036 31.3319 189.583 32.2561 188.778 32.9377L184.395 36.6544C184.213 36.7975 184.068 36.97 183.967 37.1616C183.867 37.3533 183.812 37.5602 183.808 37.77C183.804 37.9798 183.849 38.1882 183.942 38.3827C184.035 38.5773 184.173 38.754 184.348 38.9024C184.523 39.0508 184.731 39.1677 184.961 39.2463C185.191 39.3249 185.436 39.3635 185.684 39.3598C185.932 39.3561 186.176 39.3102 186.402 39.2248C186.628 39.1394 186.832 39.0163 187 38.8627L191.386 35.1482C192.882 33.8802 193.724 32.1611 193.726 30.368C193.728 28.5749 192.891 26.8543 191.398 25.5836L193.591 23.7252C195.24 22.3268 196.165 20.431 196.165 18.4544C196.165 16.4778 195.24 14.582 193.591 13.1836M183.758 15.3919C184.232 14.9897 184.796 14.6707 185.416 14.4531C186.036 14.2354 186.7 14.1234 187.372 14.1234C188.043 14.1234 188.707 14.2354 189.327 14.4531C189.947 14.6707 190.511 14.9897 190.985 15.3919C191.46 15.7941 191.836 16.2715 192.093 16.797C192.35 17.3225 192.482 17.8857 192.482 18.4544C192.482 19.0232 192.35 19.5864 192.093 20.1118C191.836 20.6373 191.46 21.1147 190.985 21.5169L161.606 46.4148C161.087 46.8523 160.438 47.1586 159.728 47.3023L151.33 48.9961L153.329 41.8815C153.498 41.2773 153.862 40.7273 154.378 40.2898L183.758 15.3919Z" fill="black"/>
</svg>
