<svg width="20" height="19" viewBox="0 0 20 19" fill="none" xmlns="http://www.w3.org/2000/svg">
<g clip-path="url(#clip0_144_13)">
<path d="M11.6667 9.5C10.7542 9.5 10 8.78354 10 7.91667C10 7.63642 10.0858 7.37596 10.2233 7.14638C10.1483 7.14083 10.0767 7.125 10 7.125C9.33831 7.12915 8.70496 7.3807 8.23706 7.82521C7.76916 8.26971 7.50437 8.87139 7.5 9.5C7.5 10.7999 8.63167 11.875 10 11.875C11.3683 11.875 12.5 10.7999 12.5 9.5C12.5 9.42717 12.4833 9.35908 12.4775 9.28783C12.2358 9.41846 11.9617 9.5 11.6667 9.5Z" fill="#059212"/>
<path d="M2.18145 9.41635L2.18155 9.41639L2.1848 9.40653C2.18448 9.40749 2.18491 9.40638 2.1861 9.40329C2.21437 9.32964 2.675 8.12982 3.83533 6.93214C5.03142 5.69757 6.97513 4.45837 9.99998 4.45837C13.0248 4.45837 14.9685 5.69757 16.1647 6.93216C17.3425 8.14773 17.8007 9.36667 17.8178 9.41206C17.8182 9.41323 17.8184 9.41362 17.8182 9.41321L17.8188 9.41495L17.8483 9.49925L17.8185 9.58373L17.8184 9.58369L17.8152 9.59355C17.8155 9.59259 17.815 9.5937 17.8139 9.59679C17.7856 9.67046 17.3249 10.8703 16.1646 12.0679C14.9685 13.3025 13.0248 14.5417 9.99998 14.5417C6.97513 14.5417 5.03141 13.3025 3.83522 12.0679C2.65748 10.8524 2.19925 9.63348 2.18216 9.58802C2.18172 9.58685 2.18157 9.58646 2.18171 9.58687L2.18111 9.58513L2.15162 9.50083L2.18145 9.41635ZM2.94041 9.29179L2.84503 9.49999L2.94037 9.70821C3.39373 10.6983 5.25407 13.9584 9.99998 13.9584C14.7432 13.9584 16.6044 10.7017 17.0595 9.7083L17.1549 9.50009L17.0596 9.29187C16.6062 8.3018 14.7459 5.04171 9.99998 5.04171C5.25672 5.04171 3.39551 8.29843 2.94041 9.29179Z" fill="#059212" stroke="black"/>
</g>
<defs>
<clipPath id="clip0_144_13">
<rect width="20" height="19" fill="white"/>
</clipPath>
</defs>
</svg>
